<svg id="visual" preserveAspectRatio="none" viewBox="0 0 900 600" xmlns="http://www.w3.org/2000/svg" xmlns:xlink="http://www.w3.org/1999/xlink" version="1.1"><rect x="0" y="0" width="900" height="600" fill="#0569b4"></rect><defs><linearGradient id="grad1_0" x1="33.3%" y1="0%" x2="100%" y2="100%"><stop offset="20%" stop-color="#0569b4" stop-opacity="1"></stop><stop offset="80%" stop-color="#0569b4" stop-opacity="1"></stop></linearGradient></defs><defs><linearGradient id="grad2_0" x1="0%" y1="0%" x2="66.7%" y2="100%"><stop offset="20%" stop-color="#0569b4" stop-opacity="1"></stop><stop offset="80%" stop-color="#0569b4" stop-opacity="1"></stop></linearGradient></defs><g transform="translate(900, 0)"><path d="M0 486.7C-69.9 487 -139.9 487.2 -186.3 449.7C-232.7 412.1 -255.5 336.8 -284.3 284.3C-313 231.7 -347.7 202 -382.5 158.4C-417.2 114.9 -452 57.4 -486.7 0L0 0Z" fill="#4000ea"></path></g><g transform="translate(0, 600)"><path d="M0 -486.7C51 -452.5 102 -418.3 166.1 -401C230.2 -383.7 307.4 -383.3 344.2 -344.2C381 -305.1 377.5 -227.2 394.5 -163.4C411.5 -99.6 449.1 -49.8 486.7 0L0 0Z" fill="#4000ea"></path></g></svg>