<?xml version="1.0" standalone="no"?>
<svg id="SvgjsSvg1001" width="600" height="600" xmlns="http://www.w3.org/2000/svg" version="1.1" xmlns:xlink="http://www.w3.org/1999/xlink" xmlns:svgjs="http://svgjs.com/svgjs" class="svg-paper" viewBox="0 0 600 600"><title id="SvgjsTitle1619">x=y|y=cos(max(y*x,x/sqrt(x*x + y*y)))|dTest=0.0|sd=0.2|sm=0.15|ts=0.01 | generated with FlowLines</title><rect id="SvgjsRect1620" width="600" height="600" fill="#000000"/><g id="SvgjsG1621"><polyline id="SvgjsPolyline1622" points="599.63,534.94 552.45,526.09 506.6,516.73 463.28,507 426.59,497.9 394.18,489.04 363.73,479.87 345.47,473.94 328.45,468.09 288.47,453.39 279.86,450.78 272.22,449.19 266.86,448.58 261.46,448.43 256.67,448.71 251.33,449.46 246.64,450.49 240.88,452.15 221.16,459.37 213.71,461.7 209.04,462.79 204.3,463.55 200.12,463.91 195.92,463.97 191.13,463.69 186.37,463.07 181.07,462.03 175.26,460.53 162.17,456.18 133.65,445.08 121.77,440.89 109.07,437.31 103.78,436.23 98.44,435.46 92.45,435.06 87.65,435.16 83.48,435.59 78.76,436.48 70.74,438.94 56.84,444.59 51.74,446.38 45.35,448 39.41,448.8 31.61,448.89 22.67,447.9 12.69,445.81 0.01,442.15" fill="none" stroke="#d1ab9a" stroke-width="1"/><polyline id="SvgjsPolyline1623" points="599.87,547.16 548.5,537.85 504.94,529.26 463.88,520.43 426.51,511.62 394.55,503.38 366.24,495.45 331.24,484.75 289.69,470.91 282.75,468.97 276.29,467.65 270.93,467 265.54,466.81 260.74,467.05 254.8,467.86 245.48,470.14 228.4,475.83 221.48,477.82 214.43,479.23 207.26,479.85 198.87,479.5 193.53,478.72 188.83,477.73 177.87,474.62 155.73,467.03 147.13,464.39 136.61,461.94 127.69,460.86 123.49,460.76 118.69,461.01 110.42,462.39 104.07,464.19 88.75,469.47 80.6,471.49 74.06,472.29 66.26,472.27 60.3,471.63 54.39,470.57 41.63,467.23 25.14,461.68 0.46,452.3" fill="none" stroke="#d1ab9a" stroke-width="1"/><polyline id="SvgjsPolyline1624" points="599.99,522.81 545.82,512.2 500.66,502.48 458.05,492.34 419.2,482.02 388.13,472.82 357.93,462.87 343.24,457.62 325.85,451.02 284.23,433.92 275.69,431.07 267.53,429.12 260.39,428.19 254.4,428.04 248.41,428.48 241.92,429.64 236.71,431.04 231.03,432.98 206.61,443.01 199.15,445.27 193.27,446.44 186.1,447.06 179.5,446.86 172.96,446.01 164.77,444.17 153.9,440.73 140.51,435.44 121.92,427.04 100.9,416.76 84.43,408.13 69.83,399.81 57.11,391.86 35.12,377.25 25.37,371.35 19,367.99 13.01,365.22 6.89,362.77 0.07,360.44" fill="none" stroke="#d1ab9a" stroke-width="1"/><polyline id="SvgjsPolyline1625" points="599.78,541.46 553.16,532.89 507.85,523.85 466.23,514.76 428.89,505.8 400.45,498.35 365.28,488.25 329.83,476.96 289.61,462.94 281.54,460.61 275.07,459.28 269.12,458.59 264.92,458.44 258.93,458.74 254.18,459.4 248.9,460.53 243.7,461.99 224.42,468.67 218.09,470.51 212.81,471.64 208.65,472.23 203.86,472.55 199.66,472.51 194.88,472.13 190.13,471.42 180.79,469.23 171.06,466.16 150.77,458.77 138.83,454.75 128.98,452.1 120.71,450.61 115.94,450.15 111.74,450.03 106.35,450.28 101.59,450.92 92.87,453.12 77.09,458.89 70.2,460.96 62.53,462.31 54.74,462.59 49.35,462.21 43.41,461.35 32.31,458.79 17.43,454.11 0.56,447.84" fill="none" stroke="#d1ab9a" stroke-width="1"/><polyline id="SvgjsPolyline1626" points="599.52,530.52 549.42,520.97 501.26,510.91 462.08,501.9 421.97,491.68 387.91,482.01 361,473.58 328.12,462.2 286.63,446.38 278.61,443.9 270.4,442.14 265.64,441.57 259.04,441.38 254.25,441.7 248.91,442.5 243.66,443.72 237.35,445.67 218.87,452.78 209.75,455.75 205.08,456.85 200.34,457.61 191.95,458.02 185.97,457.61 180.04,456.69 174.19,455.36 166.71,453.16 153.18,448.22 118.24,433.8 102.51,427.91 93.38,424.95 85.86,422.88 79.43,421.42 72.92,420.34 67.54,419.83 62.74,419.73 57.36,420.09 53.21,420.76 49.14,421.77 44.59,423.3 27.59,430.84 20.21,433.35 16.11,434.26 11.35,434.87 5.95,435.04 0.56,434.74" fill="none" stroke="#d1ab9a" stroke-width="1"/><polyline id="SvgjsPolyline1627" points="599.78,532.39 548.49,522.66 502.67,513.15 465.22,504.64 423.91,494.27 392.12,485.41 361.15,475.88 327.66,464.43 287.22,449.24 278.61,446.63 271.56,445.15 266.2,444.5 260.81,444.32 254.82,444.68 249.49,445.5 244.81,446.58 239.06,448.3 219.97,455.49 210.82,458.39 206.73,459.33 201.4,460.15 193.01,460.48 186.43,459.94 181.11,459.05 170.08,456.18 157.63,451.81 125.9,439.05 112.94,434.3 104.94,431.75 97.99,429.88 90.94,428.39 85,427.56 80.21,427.24 74.82,427.32 70.05,427.84 65.34,428.8 58.48,430.97 44.14,437.1 39.1,439.03 34.5,440.41 29.21,441.47 22.64,442.02 16.04,441.82 7.72,440.72 0.09,439.11" fill="none" stroke="#d1ab9a" stroke-width="1"/><polyline id="SvgjsPolyline1628" points="599.58,559.28 553.48,551.24 509.26,542.91 466.35,534.11 429.46,525.86 395.65,517.63 365.48,509.68 328.56,499.12 291.28,487.67 284.89,486.01 279,484.87 274.24,484.31 268.84,484.11 263.45,484.39 259.29,484.93 250.5,486.86 233.28,492.08 228.05,493.44 221.57,494.66 214.99,495.23 207.8,495.03 198.32,493.58 189.59,491.37 170.68,485.5 162.59,483.26 154.37,481.56 146.02,480.69 138.22,480.87 131.11,481.94 124.71,483.55 109.81,488.16 102.79,489.78 95.65,490.62 88.45,490.58 79.53,489.46 69,487.04 57.51,483.6 32.97,475.62 21.42,472.38 10.26,470.09 5.49,469.5 0.1,469.2" fill="none" stroke="#d1ab9a" stroke-width="1"/><polyline id="SvgjsPolyline1629" points="599.75,552.9 553.08,544.61 508.89,536.11 470.72,528.14 433.27,519.63 397.17,510.65 367.06,502.48 332.54,492.29 291.96,479.3 285.03,477.38 278.56,476.06 274.4,475.51 269.01,475.21 264.21,475.35 258.25,476.05 254.13,476.84 248.32,478.33 231.74,483.61 225.38,485.36 218.31,486.71 211.73,487.26 207.53,487.23 202.75,486.86 193.89,485.32 183.47,482.48 165.23,476.49 156.02,473.76 146.07,471.57 137.72,470.66 129.93,470.8 122.81,471.85 115.26,473.82 99.86,478.84 92.28,480.65 85.13,481.49 77.94,481.44 73.16,480.97 66.65,479.86 60.23,478.36 53.3,476.4 43.59,473.28 14.15,462.96 0.46,458.48" fill="none" stroke="#d1ab9a" stroke-width="1"/><polyline id="SvgjsPolyline1630" points="599.85,510.57 546.35,499.66 518.81,493.59 495.44,488.14 452.99,477.38 430.44,471.11 411.46,465.46 381.23,455.62 364.84,449.77 351.94,444.87 335.26,438.1 320.41,431.63 306.26,425.05 286.31,415.31 278.1,411.64 267.98,407.88 262.21,406.24 257.52,405.22 249.78,404.24 243.19,404.16 236.62,404.8 229.01,406.48 223.87,408.15 217.21,410.87 199.48,419.68 191.84,423.16 185.07,425.62 178.68,427.23 172.14,428.11 164.94,428.21 157.19,427.41 149.55,425.85 141.48,423.53 133.56,420.74 125.21,417.37 114.27,412.44 93.39,401.88 55.53,381.08 46.44,376.45 37.74,372.4 29.43,368.93 20.42,365.62 10.13,362.36 0.29,359.68" fill="none" stroke="#d1ab9a" stroke-width="1"/><polyline id="SvgjsPolyline1631" points="599.85,516.41 544.55,505.32 498.86,495.21 476.68,489.91 454,484.16 416.99,473.92 384.33,463.78 355.44,453.71 339.74,447.73 325.28,441.87 281.9,422.79 272.27,419.43 262.93,417.21 256.39,416.4 250.39,416.26 244.41,416.66 236.74,418.06 231.55,419.54 224.79,422.03 205.12,430.95 199.01,433.43 192.15,435.63 185.7,437 179.13,437.64 172.54,437.54 164.8,436.57 157.77,435.03 148.58,432.25 140.14,429.13 129.64,424.69 116.61,418.57 102.19,411.19 89.04,403.97 76.08,396.42 52.97,382.46 40.42,375.4 32.37,371.38 24.13,367.76 16.85,364.97 8.3,362.14" fill="none" stroke="#d1ab9a" stroke-width="1"/><polyline id="SvgjsPolyline1632" points="599.84,528.08 550.93,518.7 505.12,509.1 461.28,498.96 422.93,489.09 390.05,479.68 361.45,470.62 329.75,459.49 285.58,442.31 276.98,439.65 270.54,438.23 264,437.4 258.6,437.23 252.61,437.61 246.69,438.57 240.88,440.04 234.61,442.11 218.44,448.54 211.11,451.18 204.75,452.96 199.45,453.97 192.88,454.56 187.48,454.5 181.51,453.9 175.02,452.7 165.19,450 153.89,445.97 142.22,441.21 96.47,421.54 79.74,414.91 64.54,409.32 46.92,403.35 30.28,398.27 12.88,393.64 0.57,390.99" fill="none" stroke="#d1ab9a" stroke-width="1"/><polyline id="SvgjsPolyline1633" points="599.99,527.24 549.32,517.48 501.77,507.43 459.12,497.47 420.22,487.35 390.24,478.7 357.67,468.27 340.68,462.34 325.48,456.73 286.42,441.31 279.01,438.87 270.85,436.9 264.31,436 257.72,435.77 251.14,436.27 245.82,437.2 240.01,438.71 234.32,440.6 217.05,447.51 210.28,449.95 203.93,451.73 198.63,452.75 192.66,453.32 185.46,453.21 178.32,452.32 170.7,450.65 158.12,446.67 143.62,440.93 65.55,406.8 48.67,399 38.05,393.42 26.81,386.5 19.46,381.31 0.25,366.93" fill="none" stroke="#d1ab9a" stroke-width="1"/><polyline id="SvgjsPolyline1634" points="599.97,529.27 548.7,519.45 501.73,509.59 460.23,499.98 421.29,489.97 391.29,481.43 362.09,472.28 345.61,466.7 328.1,460.42 286.12,444.23 278.1,441.73 271.07,440.16 265.13,439.38 259.73,439.16 253.15,439.55 247.81,440.39 242.56,441.65 236.84,443.44 216.14,451.46 208.71,453.85 203.46,455.08 198.12,455.88 193.33,456.18 189.13,456.13 183.16,455.58 176.66,454.42 170.84,452.96 164.54,451.02 149.92,445.57 112.89,429.93 94.44,422.74 84.8,419.4 76.2,416.76 68.07,414.65 59.83,413.03 52.68,412.2 46.68,412.07 41.9,412.42 36,413.49 31.96,414.64 26.92,416.57 13.94,422.8 8.96,424.9 4.98,426.22 0.31,427.32" fill="none" stroke="#d1ab9a" stroke-width="1"/><polyline id="SvgjsPolyline1635" points="599.96,571.5 554.4,563.82 510.72,555.89 476.56,549.23 438.39,541.22 405.63,533.79 372.98,525.82 335.85,516.03 291.98,503.6 284.97,501.96 279.05,501.02 271.26,500.6 262.89,501.25 255.24,502.74 238.48,507.41 231.47,509.04 224.94,509.98 218.35,510.24 211.77,509.79 205.25,508.73 198.25,507.08 180.94,502.14 174.54,500.53 166.87,499.09 159.11,498.42 151.91,498.66 145.39,499.62 138.97,501.15 125.12,505.08 117.47,506.62 110.3,507.22 102.51,506.9 96.57,506.07 88.36,504.3 64.15,497.33 54.28,494.76 45.44,493.08 37.68,492.35 31.08,492.46 23.95,493.44 17.54,495.01 6.61,498.25 0.18,499.73" fill="none" stroke="#d1ab9a" stroke-width="1"/><polyline id="SvgjsPolyline1636" points="599.86,565.97 557.27,558.69 513.01,550.56 476.52,543.33 437.22,534.9 400.99,526.44 371.33,518.95 336.01,509.34 291.67,496.36 285.26,494.81 278.75,493.73 270.36,493.29 262,494 252.61,496 238.22,500.2 230.65,502.1 222.95,503.29 215.76,503.54 209.18,503.03 202.09,501.81 192.78,499.44 177.84,494.97 170.3,492.96 162.65,491.43 156.7,490.74 149.5,490.64 142.94,491.32 135.32,492.95 121.5,497.03 115.69,498.49 109.18,499.57 101.39,499.92 93.62,499.31 84.19,497.55 74.33,494.93 46.76,486.61 39.18,484.75 30.91,483.29 23.74,482.7 15.95,483 8.85,484.16 0.19,486.59" fill="none" stroke="#d1ab9a" stroke-width="1"/><polyline id="SvgjsPolyline1637" points="599.8,498.33 569.84,492.09 538.79,485.23 508.42,478.07 481.66,471.31 456.76,464.56 434.87,458.18 414.84,451.9 395.51,445.36 380.85,440.03 366.87,434.59 353.03,428.82 338.8,422.42 323.71,415.04 310.99,408.29 301.08,402.66 275.8,387.65 263.12,380.83 254.44,376.73 247.23,373.76 240.44,371.37 232.93,369.26 224.08,367.62 219.9,367.21 215.11,367.07 207.34,367.68 199.74,369.41 192.46,372.2 186.08,375.53 178.98,380.02 163.64,390.53 157.96,393.89 153.11,396.27 146.93,398.57 141.69,399.86 135.74,400.63 129.14,400.72 123.17,400.22 115.48,398.91 109.07,397.36 100.44,394.78 86.33,389.72 55.16,377.17 39.45,371.2 22.95,365.69 7.94,361.43" fill="none" stroke="#d1ab9a" stroke-width="1"/><polyline id="SvgjsPolyline1638" points="599.49,504.5 571.27,498.75 543.11,492.7 516.78,486.72 491.7,480.68 467.29,474.42 445.3,468.39 425.73,462.66 405.69,456.37 390.33,451.21 375.08,445.75 360.51,440.17 346.63,434.49 328.53,426.46 315.55,420.23 304.33,414.5 283.69,403.47 274.53,398.99 264,394.62 258.32,392.7 253.12,391.26 244.27,389.62 237.09,389.14 230.5,389.45 222.82,390.78 215.94,392.87 209.29,395.64 202.34,399.18 183.47,409.69 178.03,412.21 173.55,413.93 167.2,415.73 161.29,416.71 154.1,417.04 147.52,416.6 140.41,415.45 132.26,413.43 124.26,410.88 115.83,407.72 97.69,399.78 62.15,382.32 48.55,375.99 34.13,370.04 19.97,365.11" fill="none" stroke="#d1ab9a" stroke-width="1"/><polyline id="SvgjsPolyline1639" points="600,496.14 567.71,489.33 539.6,483.05 511,476.26 484.24,469.47 457.62,462.2 434.03,455.23 412.31,448.27 392.48,441.37 373.41,434.12 358.44,427.93 342.58,420.79 328.58,413.91 317.45,407.99 305.99,401.45 274.93,382.09 264.1,375.64 250.96,368.43 238.58,362.33 222.6,355.44 206.84,349.64 190.23,344.46 171.07,339.48 156.42,336.26 139.91,333.13 125.11,330.71 107.88,328.26 87.03,325.74 60.76,323.11 43.42,321.75 36.22,321.72 33.26,322.14 30.97,322.85 28.84,323.95 26.93,325.4 23.34,329.42 15.72,340.93 11.2,346.53 8.55,348.95 5.61,351.03 2.95,352.4 0.13,353.42" fill="none" stroke="#d1ab9a" stroke-width="1"/><polyline id="SvgjsPolyline1640" points="599.77,528.56 547.33,518.48 500.36,508.57 459.46,499.05 421.7,489.31 389.39,480.06 359.08,470.44 328.52,459.68 287.14,443.59 278.58,440.83 272.16,439.3 266.23,438.4 260.24,438.04 254.25,438.28 248.31,439.11 243.05,440.31 236.74,442.25 216.06,450.31 206.33,453.37 201.05,454.47 195.69,455.11 190.89,455.26 185.5,454.99 180.14,454.29 174.27,453.09 167.32,451.19 161.62,449.32 148.17,444.18 109,427.43 90.06,419.86 78.79,415.75 67.96,412.18 58.16,409.36 50.57,407.54 42.9,406.14 35.74,405.39 29.75,405.32 24.37,405.83 19.68,406.81 13.97,408.67 7.95,411.36 0.5,415.24" fill="none" stroke="#d1ab9a" stroke-width="1"/><polyline id="SvgjsPolyline1641" points="599.81,583.63 550.66,575.57 511.66,568.71 475.1,561.83 438.05,554.35 405.8,547.36 376.57,540.61 336.97,530.81 291.72,518.86 285.26,517.51 280.51,516.84 272.72,516.49 264.95,517.13 257.29,518.6 237.51,523.59 231.59,524.53 225.61,524.93 220.21,524.78 213.07,523.9 205.44,522.29 183.93,516.77 177.43,515.63 171.46,515.07 164.87,515.11 158.31,515.86 151.27,517.35 134.41,521.63 128.48,522.52 122.49,522.84 116.49,522.56 108.78,521.46 100.58,519.63 76.2,513.26 69.12,511.96 61.96,511.25 55.36,511.29 48.81,512.07 42.94,513.33 29.02,517.01 21.33,518.29 16.54,518.58 11.75,518.48 6.37,517.96 0.45,516.99" fill="none" stroke="#d1ab9a" stroke-width="1"/><polyline id="SvgjsPolyline1642" points="599.57,577.19 557.54,570.22 516.19,562.88 479.05,555.81 440.26,547.85 407.46,540.59 375.93,533.11 339.31,523.77 292.43,510.95 285.99,509.51 280.65,508.69 272.27,508.28 263.9,509.01 256.26,510.55 242.36,514.33 235.36,515.98 228.84,516.98 222.85,517.31 216.26,516.99 209.14,515.93 202.7,514.48 185.92,509.87 178.92,508.19 172.42,507.05 165.25,506.46 158.06,506.7 151.53,507.66 145.11,509.17 132.96,512.52 124.73,514.17 118.16,514.74 110.36,514.49 103.24,513.5 96.78,512.13 73.65,505.74 64.91,503.6 57.82,502.32 50.66,501.65 44.06,501.74 37.52,502.58 31.67,503.91 18.38,507.63 12.51,508.85 5.95,509.54 0.55,509.54" fill="none" stroke="#d1ab9a" stroke-width="1"/><polyline id="SvgjsPolyline1643" points="599.56,501.03 572.53,495.46 539.71,488.3 512.82,482.06 487.77,475.88 463.98,469.62 442.04,463.44 422.5,457.55 400.25,450.31 386.1,445.35 371.48,439.89 355.89,433.63 343.22,428.17 327.45,420.83 314.59,414.35 301.92,407.5 281.57,395.95 270.4,390.13 262.21,386.39 255.51,383.76 249.81,381.89 244.01,380.35 236.93,379.07 228.55,378.51 221.37,378.96 213.13,380.58 206.31,382.87 199.23,386.14 192.95,389.66 175.04,400.61 169.18,403.64 164.77,405.53 159.07,407.41 152.61,408.74 147.23,409.23 140.64,409.15 133.49,408.32 125.27,406.61 116.62,404.12 108.68,401.37 93.66,395.32 52.02,376.72 42.02,372.64 31.34,368.68" fill="none" stroke="#d1ab9a" stroke-width="1"/><polyline id="SvgjsPolyline1644" points="599.47,496.96 566.59,490.04 538.48,483.77 510.46,477.13 484.28,470.51 459.96,463.92 435.2,456.68 412.32,449.41 393.61,442.95 377.31,436.87 360.06,429.89 343.06,422.35 330.63,416.35 317.86,409.7 306.35,403.24 278.71,386.35 267.84,379.97 251.89,371.62 243.15,367.67 235.9,364.79 227.94,362.09 219.83,359.91 210.38,358.26 202,357.81 197.81,358.03 193.64,358.56 189.53,359.41 186.07,360.42 179.42,363.16 172.65,367.02 166.25,371.48 151.41,382.69 146.39,385.97 141.65,388.57 136.14,390.92 130.38,392.59 125.05,393.46 119.06,393.78 113.67,393.55 107.12,392.73 99.48,391.19 91.94,389.2 77.09,384.41 46.08,373.14 30.73,367.95 15.79,363.48 0.1,359.43" fill="none" stroke="#d1ab9a" stroke-width="1"/><polyline id="SvgjsPolyline1645" points="599.48,483.78 559.07,474.77 518.84,465.02 483.46,455.62 447.78,445.1 419.3,435.7 406.87,431.24 391.74,425.45 368.54,415.62 356.6,410 344.84,404 333.31,397.58 323.06,391.33 313.09,384.67 304.37,378.29 296.86,372.31 288.24,364.85 280.83,357.85 272.97,349.59 267.97,343.61 263.38,337.3 259.63,331.16 256.45,324.7 254.14,318.52 252.6,312.72 251.56,306.21 251.24,299.62 251.72,292.44 253.04,285.37 255.38,277.93 258.57,270.82 262.48,264.07 267.7,256.74 273.88,249.4 280.94,242.04 290.58,233.02 301.16,224.16 310.77,216.98 320.34,210.79 328.82,206.29 336.59,203.13 344.69,200.92 348.83,200.23 353.01,199.84 357.81,199.76 363.2,200.12 367.95,200.81 373.23,201.95 379.56,203.79 384.65,205.61 390.2,207.89 396.72,210.93 406.79,216.28 420.62,224.71 432.05,232.44 455,248.82 466.05,256.04 471.26,259.02 477.15,261.99 482.66,264.36 488.3,266.41 495.78,268.61 505.73,270.85 515.19,272.51 527.07,274.21 544.35,276.24 562.26,277.99 599.95,280.89" fill="none" stroke="#d1ab9a" stroke-width="1"/><polyline id="SvgjsPolyline1646" points="599.72,490.18 558.1,481.12 518.4,471.73 481.8,462.25 449.5,453.02 420.33,443.77 393.19,434.13 379.22,428.67 368.15,424.05 346.88,414.3 334.06,407.75 324.08,402.23 313.78,396.08 302.7,388.9 291.91,381.3 278.46,371.23 265.29,360.8 256.63,353.38 251.38,348.46 245.99,342.82 241.78,337.75 237.67,331.84 234.47,326.07 232.11,320.55 230.17,314.25 229.03,308.36 228.45,300.59 228.81,293.4 229.9,286.89 232.12,279.42 235.02,272.84 238.99,266.13 243.28,260.35 249.7,253.22 261.57,242.19 276.68,229.4 290.94,218.42 305.25,208.52 316.02,202 325.69,197.19 330.71,195.2 335.28,193.73 339.94,192.58 344.08,191.87 349.45,191.39 355.45,191.43 360.82,191.96 367.31,193.17 373.67,194.91 379.91,197.08 386.01,199.59 393.07,202.91 401.03,207.11 408.81,211.63 423.41,221.09 436.06,230.22 461.66,250.08 471.99,257.28 478.19,260.95 485.19,264.38 491.9,266.98 498.21,268.91" fill="none" stroke="#d1ab9a" stroke-width="1"/><polyline id="SvgjsPolyline1647" points="599.93,493.45 556.53,484.1 519.72,475.51 485.99,466.96 453.61,457.97 422.08,448.25 394.29,438.64 380.83,433.54 367.48,428.13 346.11,418.6 334.81,413.04 323.67,407.15 312.73,400.91 301.99,394.31 249.76,359.08 240.96,352.82 233.86,347.29 228.44,342.56 224.61,338.75 220.34,333.72 216.95,328.78 214.12,323.49 212.31,319.04 210.49,312.7 209.5,306.79 209.12,299 209.52,293.02 210.81,285.94 213.24,278.53 216.13,272.61 220.09,266.6 224.75,261.11 229.91,256.09 244.99,243.27 264.37,228.12 282.35,215.1 299.39,203.88 312.31,196.27 323.1,191.03 328.14,189.08 333.29,187.48 337.97,186.4 342.71,185.68 349.3,185.31 354.1,185.5 360.05,186.24 365.92,187.48 371.68,189.13 377.34,191.13 384.54,194.13 392.11,197.76 401.1,202.59 409.88,207.78 418.97,213.61 427.36,219.4 443.14,231.36 469.12,252.67 474.92,256.93 479.43,259.9 487.31,264.24 494.5,267.25 503.11,269.88 511.31,271.69" fill="none" stroke="#d1ab9a" stroke-width="1"/><polyline id="SvgjsPolyline1648" points="599.71,494.95 552.78,484.87 517.14,476.55 481.67,467.54 451.03,459.01 422.35,450.21 395.1,440.9 371.01,431.67 358.84,426.56 347.34,421.4 327.96,411.87 318.98,407.04 308.57,401.07 298.85,395.11 264,372.77 251.65,365.37 227.75,351.56 220.61,347.13 215.17,343.4 209.99,339.31 205.62,335.21 202.06,331.15 198.98,326.71 196.97,323.03 194.91,318.04 193.42,312.85 192.39,306.94 191.99,299.16 192.53,291.98 194.14,284.36 196.66,277.62 199.88,271.87 203.9,266.64 208.96,261.52 216.58,254.74 231.62,242.81 256.4,224.86 276.76,211.05 294.04,200.21 308.09,192.14 319.94,186.35 324.4,184.57 330.1,182.71 335.35,181.43 340.68,180.6 347.27,180.24 353.26,180.54 359.79,181.51 366.2,183.04 373.62,185.45 380.31,188.11 389.02,192.14 396.48,196.01 405.87,201.33 415.59,207.3 426.08,214.28 434.85,220.58 449.89,232.51 473.02,252.54 482.09,259.44 487.68,262.95 494.1,266.2 499.69,268.39 506,270.29" fill="none" stroke="#d1ab9a" stroke-width="1"/><polyline id="SvgjsPolyline1649" points="599.68,495.63 559.77,487.14 520.01,477.98 485.1,469.21 453.86,460.62 423.43,451.38 397.85,442.75 373.7,433.66 351.05,424.07 330.49,414.22 312.54,404.53 299.15,396.53 268.71,377.31 252.61,368 237.74,360.19 209.16,346.25 201.26,341.93 196.7,339.04 192.37,335.81 188.82,332.59 185.63,329.01 182.87,325.08 180.64,320.84 178.92,316.36 177.46,310.54 176.73,305.19 176.56,297.4 177.32,290.24 178.2,286.14 179.24,282.69 181.88,276.65 185.14,271.62 189.92,266.25 196.88,259.64 204.7,253.08 220.56,241.24 246.87,223.37 270.08,208.44 292.21,195.19 309.61,185.74 320.55,180.81 325.06,179.18 330.24,177.66 334.93,176.65 340.29,175.94 347.48,175.74 352.86,176.15 359.37,177.24 365.76,178.88 372.59,181.17 380.37,184.33 388.51,188.15 398.09,193.15 410.06,200.01 421.78,207.3 431.74,213.99 441.92,221.41 450.38,228.13 456.77,233.57 479.89,254.52 484.54,258.31 489.91,262.15 496.13,265.77 502.73,268.65 511.34,271.25 519.56,272.94" fill="none" stroke="#d1ab9a" stroke-width="1"/><polyline id="SvgjsPolyline1650" points="599.55,496.36 570.19,490.19 540.9,483.68 511.13,476.63 483.79,469.7 458.9,462.92 434.72,455.81 415.28,449.64 391.47,441.4 373.52,434.58 357.44,427.93 342.12,421.03 329.19,414.7 318.57,409.11 306.56,402.32 277.48,384.32 266.14,377.57 255.1,371.5 245.98,366.92 236.14,362.47 225.54,358.28 215.87,355.05 206.59,352.58 196.56,350.78 187.58,350.22 183.39,350.41 179.22,350.95 175.71,351.72 171.13,353.16 165.12,355.87 159,359.66 152.79,364.38 138.93,375.86 134.05,379.35 130.46,381.54 125.63,383.94 120.56,385.78 115.3,387 111.13,387.52 105.74,387.7 98.56,387.22 91.44,386.12 84.41,384.58 68.83,380.14 31.76,368.05" fill="none" stroke="#d1ab9a" stroke-width="1"/><polyline id="SvgjsPolyline1651" points="319.49,408.86 301.31,398.36 269.78,378.61 251.52,368.25 239.2,362.02 228.86,357.24 195.59,343.48 187.93,340.04 183.14,337.55 179.05,335.04 175.67,332.54 173.01,330.13 169.87,326.5 167.84,323.52 165.9,319.8 164.41,315.88 163.08,310.65 162.39,305.9 162.12,301.71 162.21,296.31 162.71,291.54 163.64,286.83 165.06,282.25 166.49,278.95 168.26,275.81 170.35,272.89 177.22,265.35 184.29,258.86 191.74,252.81 200.42,246.38 211.3,238.9 227.4,228.45 248.78,215.11 267.78,203.63 283.89,194.33 306.11,182.44 314.25,178.6 320.36,176.12 326.63,174.06 333.64,172.45 339.6,171.71 344.99,171.55 350.98,171.94 357.49,172.99 365.04,174.94 372.41,177.48 381.27,181.19 389.39,185.07 400.54,190.93 410.99,196.83 422.31,203.61 434.44,211.38 443.32,217.53 451,223.29 457.07,228.18 465.2,235.29 486.47,255.58 491.02,259.49 495.33,262.75 500.4,265.95 505.78,268.6 510.84,270.47 517.21,272.2" fill="none" stroke="#d1ab9a" stroke-width="1"/><polyline id="SvgjsPolyline1652" points="288.28,390.64 270.95,379.88 258.47,372.7 245.16,365.79 230.96,359.33 218.11,354.3 202.7,349.32 189.88,346.19 183.97,345.16 178.6,344.53 171.41,344.3 164.85,344.91 159.6,346.16 153.49,348.64 148.8,351.31 143.93,354.81 138.89,359.07 126.86,369.92 120.65,374.64 116.55,377.14 112.23,379.22 108.28,380.63 103.61,381.76 97.66,382.46 92.26,382.51 86.28,382.05 79.16,380.96 64.56,377.54 35.8,369" fill="none" stroke="#d1ab9a" stroke-width="1"/><polyline id="SvgjsPolyline1653" points="222.83,355.25 208.26,349.67 181.58,340.53 171.5,336.68 167.15,334.65 162.98,332.26 159.59,329.79 156.57,326.88 153.37,322.54 150.74,317.15 149.07,311.4 148.08,304.27 148.03,296.48 148.81,289.93 150.29,284.12 152.69,278.63 155.35,274.64 159.99,269.13 165.48,263.6 171.33,258.43 178.37,252.83 184.66,248.22 192.58,242.79 203.67,235.63 220.56,225.3 242.25,212.48 265.13,199.31 281.94,190.03 296.82,182.23 310.3,175.66 318.61,172.21 326.61,169.66 334.25,168.11 340.83,167.54 348.62,167.8 356.32,169 363.87,170.96 372.92,174.16 382.83,178.44 393.6,183.72 413.68,194.53 431.36,204.7 445.14,213.22 456.53,221.01 464.62,227.22 471.92,233.46 479.32,240.47 496.13,257.6 501.51,262.38 505.84,265.6 511.55,268.91 517.09,271.2 523.44,273 531.1,274.47" fill="none" stroke="#d1ab9a" stroke-width="1"/><polyline id="SvgjsPolyline1654" points="211.54,351.46 201.86,348.25 190.91,345.07 182.18,342.89 172.78,340.97 165.06,339.85 158.48,339.39 153.08,339.52 147.74,340.27 144.26,341.21 140.36,342.75 137.18,344.44 133.17,347.07 127.18,352.06 112.93,365.81 108.75,369.21 104.26,372.21 99.99,374.4 95.49,376.06 90.82,377.17 85.46,377.79 80.06,377.85 74.08,377.4 62.25,375.43 50,372.49 17,363.51" fill="none" stroke="#d1ab9a" stroke-width="1"/><polyline id="SvgjsPolyline1655" points="194.12,345.38 165.89,337.2 155.09,333.55 150.71,331.59 147.07,329.49 143.76,326.91 140.93,323.81 139.27,321.32 137.87,318.67 135.86,313.02 134.61,305.94 134.34,298.15 135.02,290.99 136.39,285.15 137.42,282.34 138.73,279.64 142.1,274.68 146.34,269.62 151.82,264.07 157.66,258.9 163.76,254.04 172.01,248.05 180.49,242.38 200.96,229.86 222.83,217.34 251.66,201.28 270.12,191.27 287.15,182.41 302.76,174.71 313.16,170.05 322.18,166.78 329.74,164.87 337.47,163.85 345.27,163.84 353.59,164.89 362.33,167.05 370.83,169.99 381.33,174.43 392.69,179.88 409.77,188.65 451.7,210.75 462.14,216.66 470.82,222.03 481.09,229.32 490.21,237.11 498.21,245.23 511.82,260.42 516.12,264.6 519.36,267.27 524.4,270.52 529.33,272.72 535.67,274.55 542.16,275.74" fill="none" stroke="#d1ab9a" stroke-width="1"/><polyline id="SvgjsPolyline1656" points="162.95,337.34 144.92,332.79 138.67,330.69 134.84,328.97 131.26,326.77 128.14,323.98 125.96,321.12 124.01,317.4 122.95,314.59 122.02,311.12 121.04,303.99 120.99,296.8 121.86,289.65 123.08,285.01 124.99,280.62 129.02,274.66 133.27,269.61 137.89,264.9 143.24,260.08 148.83,255.55 155.58,250.55 170.6,240.63 188.16,230.24 228.18,208.4 272.81,184.98 289.47,176.7 304.11,169.78 312.93,165.99 319.7,163.54 324.89,162.05 330.17,160.93 334.93,160.31 339.72,160.06 345.12,160.24 349.29,160.7 354.02,161.53 360.42,163.15 369.51,166.22 379.48,170.36 423.3,191.37 435.36,196.75 447.02,201.52 458.29,205.63 469.18,209.01 478.5,211.3 486.78,212.7 493.36,213.24 498.75,213.2 504.71,212.51 509.96,211.26 514.48,209.64 519.37,207.35 534.38,198.55 540.26,195.57 546.45,193.28 553.49,191.81 558.27,191.42 562.47,191.42 567.26,191.75 572.61,192.45 584.36,194.89 599.95,199.27" fill="none" stroke="#d1ab9a" stroke-width="1"/><polyline id="SvgjsPolyline1657" points="175.45,340.71 160.19,337.51 153.67,336.46 146.52,335.65 141.13,335.41 137.53,335.52 133.36,336.02 129.28,337.03 125.93,338.33 123.27,339.72 117.41,343.89 112.15,348.8 100.97,360.52 96.96,364.14 93.63,366.69 90.07,368.92 86.85,370.52 82.91,371.97 78.24,373.07 74.07,373.58 69.28,373.73 64.48,373.51 58.52,372.84 46.72,370.66 26.9,365.85" fill="none" stroke="#d1ab9a" stroke-width="1"/><polyline id="SvgjsPolyline1658" points="146.66,334.15 129.09,330.26 124.5,328.85 120.09,326.96 116.56,324.7 113.98,322.2 111.94,319.24 110.01,314.85 108.45,308.45 107.84,301.28 108.19,293.49 109.43,287.01 111.09,282.52 113.85,277.88 118.59,271.69 123.5,266.43 128.78,261.53 133.38,257.68 139.57,252.94 145.95,248.45 161.15,238.81 181.51,227.27 225.65,204.23 275.48,179.12 303.74,165.9 312.6,162.2 319.96,159.64 324.59,158.38 329.3,157.41 334.06,156.8 338.85,156.56 342.45,156.63 347.82,157.13 357.23,159.03 365.25,161.51 374.21,164.96 382.46,168.56 411.31,181.92 426.84,188.34 434.76,191.14 442.23,193.38 449.82,195.16 455.74,196.11 461.72,196.61 467.72,196.55 473.08,195.95 477.77,194.95 482.92,193.33 487.92,191.28 505.05,182.62 512.26,179.66 516.87,178.3 520.98,177.47 525.75,176.93 529.95,176.81 535.94,177.13 541.88,177.92 548.94,179.35 557.64,181.65 574.72,187.31 599.95,196.93" fill="none" stroke="#d1ab9a" stroke-width="1"/><polyline id="SvgjsPolyline1659" points="142.16,333.84 131.44,332.52 123.05,332.28 119.47,332.59 116.52,333.13 113.64,333.97 110.88,335.13 106.77,337.61 101.73,341.87 87.58,357.37 81.76,362.56 78.3,364.93 74.58,366.88 70.65,368.36 65.98,369.46 60.62,370.03 56.42,370.07 51.03,369.74 44.48,368.91 31.52,366.44 0.52,359.32" fill="none" stroke="#d1ab9a" stroke-width="1"/><polyline id="SvgjsPolyline1660" points="125.58,330.53 117.92,329.05 111.52,327.44 107.03,325.76 103.43,323.62 100.82,321.15 98.55,317.63 96.83,313.15 95.79,308.47 95.21,302.5 95.34,295.31 96.32,288.78 98,283.66 100.65,278.96 104.9,273.15 108.86,268.65 114.89,262.8 119.91,258.52 125.6,254.11 138.46,245.28 154.92,235.4 176.03,223.99 220.55,201.67 274.49,175.39 305.09,161.52 313.45,158.19 320.29,155.95 329.07,153.98 333.83,153.42 338.03,153.24 346.41,153.74 355.24,155.43 361.59,157.25 371.17,160.73 381.12,164.94 404.67,175.47 419.74,181.4 428.32,184.14 434.71,185.77 441.2,186.97 447.16,187.6 452.56,187.71 457.35,187.39 462.68,186.52 467.9,185.15 476.29,181.92 493.66,173.75 499.29,171.67 503.34,170.54 508.64,169.56 514.02,169.11 520.02,169.21 525.98,169.84 531.89,170.88 538.89,172.55 545.24,174.38 553.78,177.21 570.61,183.6 599.94,195.88" fill="none" stroke="#d1ab9a" stroke-width="1"/><polyline id="SvgjsPolyline1661" points="122.27,330.54 113.31,329.71 106.11,329.73 100.79,330.59 98.5,331.31 95.77,332.55 92.25,334.83 88.22,338.42 84.57,342.39 75.32,353.43 70.18,358.47 66.85,361.02 63.77,362.87 60.49,364.37 56.49,365.63 52.96,366.32 48.78,366.72 42.78,366.71 37.4,366.27 23.77,364.12 3.22,359.79" fill="none" stroke="#d1ab9a" stroke-width="1"/><polyline id="SvgjsPolyline1662" points="106.79,327.82 99.72,326.43 94.55,324.89 90.8,323.02 88.05,320.71 86.58,318.82 85.41,316.72 83.8,312.21 82.78,306.91 82.36,300.33 82.58,294.93 83.36,289.59 84.73,285 86.92,280.73 90.6,275.26 95.22,269.74 100.29,264.63 106.61,259.1 112.77,254.31 120.12,249.12 133.31,240.79 150.56,231.08 171.37,220.38 226.52,193.85 274.84,171.12 305.6,157.6 314.01,154.38 320.88,152.26 328.51,150.65 332.68,150.16 337.48,149.95 345.26,150.42 353.52,151.93 361.02,154.05 368.93,156.87 400.4,170.25 412.74,174.94 419.6,177.11 426.58,178.88 433.08,180.04 438.45,180.57 443.85,180.66 448.04,180.39 452.79,179.69 458.03,178.43 467.06,175.17 484.59,167.34 489.68,165.54 494.31,164.3 500.23,163.32 506.22,162.99 511.01,163.16 517.57,163.93 524.04,165.19 531.59,167.15 540.18,169.86 549.21,173.11 568.65,181.04 599.89,194.96" fill="none" stroke="#d1ab9a" stroke-width="1"/><polyline id="SvgjsPolyline1663" points="102.92,327.88 95.73,327.42 89.74,327.63 85.05,328.6 80.68,330.57 76.85,333.44 73.48,336.86 62.98,349.97 58.04,355.2 54.79,357.86 52.28,359.5 49.07,361.12 46.25,362.16 42.76,363.04 38.61,363.62 34.41,363.81 30.21,363.69 18.89,362.42 1.19,359.16" fill="none" stroke="#d1ab9a" stroke-width="1"/><polyline id="SvgjsPolyline1664" points="98.05,326.92 88.55,325.51 83.28,324.38 79.31,323 76.23,321.16 73.75,318.57 71.79,314.87 70.34,309.67 69.59,303.72 69.54,297.13 70.08,291.75 71.34,286.51 73.06,282.68 77.22,276.09 81.77,270.51 87.22,264.94 94.46,258.64 100.65,253.89 106.54,249.75 114.6,244.53 122.31,239.89 139.65,230.34 161.64,219.32 200.77,201.01 276.07,166.58 305.31,154.09 313.18,151.13 320.06,149.02 328.28,147.33 332.45,146.87 336.65,146.71 345.03,147.25 352.11,148.54 359.63,150.61 368.12,153.59 395.83,165.07 408.22,169.63 415.12,171.69 420.37,172.95 426.27,173.99 431.65,174.52 436.44,174.62 441.23,174.33 445.98,173.63 450.66,172.54 459.17,169.64 478.5,161.45 483.07,159.97 487.73,158.83 492.47,158.09 497.86,157.75 503.85,157.95 509.81,158.67 516.29,159.93 523.26,161.73 531.84,164.43 542.55,168.34 553.67,172.85 566.32,178.37 599.49,193.84" fill="none" stroke="#d1ab9a" stroke-width="1"/><polyline id="SvgjsPolyline1665" points="83.53,325.65 76.94,325.52 72.76,325.95 69.29,326.89 65.57,328.81 62.76,331.05 59.86,334.09 49.69,347.46 45.71,351.95 41.13,355.81 38.58,357.38 35.87,358.66 32.45,359.8 28.93,360.53 25.35,360.91 21.15,361.01 11.58,360.32 0.31,358.63" fill="none" stroke="#d1ab9a" stroke-width="1"/><polyline id="SvgjsPolyline1666" points="75.65,324.25 69.76,323.11 65.8,321.73 64.23,320.86 62.36,319.36 60.23,316.48 58.51,312.01 57.35,305.52 57.1,298.92 57.33,294.73 57.81,291.16 58.81,287.09 60.77,282.71 63.89,277.59 67.51,272.81 71.93,267.91 76.69,263.34 82.64,258.3 88.37,253.94 101.82,244.92 116.85,236.15 135.46,226.43 154.38,217.31 188.24,201.91 277.62,162.21 305.88,150.47 313.78,147.61 320.69,145.61 328.95,144.09 335.53,143.66 343.31,144.07 351,145.4 357.95,147.25 365.34,149.74 393.74,161.14 404.49,164.94 411.99,167.06 416.68,168.09 421.41,168.86 427.39,169.38 432.19,169.39 436.38,169.07 441.12,168.34 445.79,167.22 453.18,164.75 471.49,157.21 476.04,155.69 481.27,154.37 487.2,153.48 493.2,153.23 499.19,153.57 505.72,154.5 512.17,155.9 521.4,158.53 531.04,161.85 542.22,166.21 554.92,171.62 566.94,177.07 599.89,193.01" fill="none" stroke="#d1ab9a" stroke-width="1"/><polyline id="SvgjsPolyline1667" points="66.07,323.89 61.27,323.88 57.11,324.38 53.69,325.49 50.59,327.31 48.32,329.27 45.53,332.41 36.8,344.6 33.38,348.77 28.98,352.85 24.92,355.39 19.87,357.28 13.96,358.27 7.96,358.42 0.19,357.85" fill="none" stroke="#d1ab9a" stroke-width="1"/><polyline id="SvgjsPolyline1668" points="60.25,322.75 54.97,321.64 51.12,319.98 49.69,318.89 48.47,317.57 46.7,314.45 45.76,311.6 45.14,308.67 44.48,302.11 44.67,294.91 45.79,288.42 47.57,283.97 50.22,279.27 53.33,274.85 57.18,270.25 61.79,265.53 67.16,260.73 72.78,256.23 79.58,251.31 92.71,242.89 108.4,234.06 125.51,225.36 148.88,214.43 176.32,202.31 276.01,159.23 305.47,147.25 313.95,144.25 320.31,142.47 327.97,141.06 334.55,140.6 342.34,140.98 350.03,142.27 356.42,143.93 363.83,146.36 390.64,156.86 400.85,160.38 411.89,163.2 417.22,164.05 422.6,164.51 426.2,164.56 431.59,164.22 436.33,163.5 441.01,162.41 449.54,159.56 467.38,152.46 471.97,151.05 477.23,149.86 482.58,149.17 487.98,148.99 493.97,149.35 499.91,150.19 508.68,152.17 517.31,154.74 527.49,158.34 540.86,163.69 554.61,169.68 567.68,175.73 599.91,191.76" fill="none" stroke="#d1ab9a" stroke-width="1"/><polyline id="SvgjsPolyline1669" points="53.28,322.39 45.54,321.46 40.87,320.38 37.66,318.78 36.32,317.59 35.22,316.17 34.12,314.04 33.35,311.77 32.58,308.25 32.14,304.68 32.01,297.48 32.73,290.93 33.85,286.89 36.47,281.49 39.72,276.45 43.45,271.75 48.38,266.51 52.78,262.43 59.27,257.1 66.53,251.79 79.65,243.35 94.81,234.8 110.85,226.64 135.88,215.02 163.96,202.86 274.56,156.3 306.34,143.67 313.15,141.32 318.92,139.68 326.57,138.19 333.15,137.65 340.93,137.93 348.64,139.14 355.61,140.91 362.46,143.12 387.68,152.77 397.91,156.22 403.7,157.8 408.98,158.93 414.32,159.71 418.51,160.03 423.31,160.06 427.5,159.76 432.24,159.05 436.92,157.97 444.35,155.59 462.24,148.65 467.41,147.07 472.68,145.91 478.04,145.24 484.03,145.09 489.42,145.45 495.36,146.31 504.13,148.31 512.75,150.9 524.05,154.94 537.4,160.31 551.17,166.28 568.6,174.33 582.61,181.19 599.67,190" fill="none" stroke="#d1ab9a" stroke-width="1"/><polyline id="SvgjsPolyline1670" points="39.95,321.33 31,320.4 26.9,319.53 23.66,317.99 21.59,315.84 20.4,313.76 19.54,311.52 18.84,308.6 18.36,305.04 18.21,297.24 18.5,293.66 19.11,290.11 19.76,287.8 20.91,285.03 23.45,280.27 26.83,275.31 31.46,269.8 36.54,264.71 41.96,259.97 48.11,255.17 56.48,249.33 71.84,239.96 86.64,232.01 106.06,222.57 129.08,212.31 158.96,199.79 276.7,151.64 305.22,140.57 312.6,138.05 318.96,136.28 326.03,134.96 332.61,134.43 339.8,134.67 346.92,135.71 352.76,137.08 359.66,139.16 384.97,148.56 394.65,151.76 401.03,153.44 405.73,154.4 414.67,155.39 418.87,155.43 423.66,155.11 431.92,153.63 440.52,150.97 458.49,144.22 463.1,142.88 468.38,141.76 473.74,141.13 478.53,140.99 483.33,141.23 489.87,142.09 498.66,144.03 507.86,146.77 519.16,150.79 533.65,156.57 551.29,164.14 570.96,173.07 585.01,179.85 599.94,187.55" fill="none" stroke="#d1ab9a" stroke-width="1"/><polyline id="SvgjsPolyline1671" points="31.43,320.75 25.44,320.45 20.64,320.55 17.12,321.22 14.4,322.48 11.61,324.74 8.88,327.93 0.12,341.55" fill="none" stroke="#d1ab9a" stroke-width="1"/><polyline id="SvgjsPolyline1672" points="599.71,595.75 556.45,588.9 516.81,582.21 480.79,575.73 442.49,568.36 410.17,561.71 380.28,555.18 341.12,546.07 293.37,534.23 287.49,533.01 282.15,532.25 274.96,531.9 267.78,532.4 259.52,533.88 240.83,538.28 234.29,539.16 228.9,539.38 223.51,539.12 216.97,538.23 191.25,532.28 185.92,531.42 180.55,530.93 174.55,530.93 168.58,531.52 162.68,532.62 149.86,535.77 143.99,536.97 138.03,537.7 132.64,537.86 126.65,537.48 120.71,536.62 114.25,535.27 93.86,530.27 87.37,529.08 81.41,528.42 74.81,528.31 68.84,528.84 62.93,529.91 46.01,533.93 40.66,534.67 35.87,534.92 29.28,534.64 22.14,533.67 15.09,532.22 0.55,528.53" fill="none" stroke="#d1ab9a" stroke-width="1"/><polyline id="SvgjsPolyline1673" points="599.66,471.55 560.53,462.36 525.06,453.34 492.1,444.21 462.82,435.32 437.21,426.76 412.46,417.57 391.96,409.06 381.04,404.09 370.26,398.82 361.24,394.07 352.36,389.04 344.68,384.35 337.17,379.38 330.35,374.49 324.2,369.69 317.82,364.22 312.16,358.86 306.4,352.75 301.78,347.22 297.85,341.93 293.62,335.37 290.74,330.11 288.02,324.1 286.01,318.45 284.38,312.06 283.42,305.53 283.19,298.34 283.82,291.17 285.27,284.12 287.48,277.27 290.62,270.13 294.41,263.32 299.08,256.34 304.65,249.27 311.55,241.76 319.44,234.39 326.49,228.8 333.99,223.84 340.34,220.45 347.57,217.52 355.1,215.52 360.44,214.74 364.64,214.49 369.43,214.56 374.81,215.07 380.13,216 384.79,217.12 389.4,218.48 395.61,220.69 406.08,225.21 416.24,230.38 427.72,236.89 452.45,251.64 465.72,258.63 472.85,261.79 481.29,264.92 489.91,267.49 496.32,269.06" fill="none" stroke="#d1ab9a" stroke-width="1"/><polyline id="SvgjsPolyline1674" points="599.47,478.06 562.03,469.52 528.23,461.22 492.87,451.78 459.49,441.95 430.98,432.61 405.63,423.33 383.44,414.19 362.79,404.52 352.68,399.26 343.27,393.96 335.07,388.96 327.55,384.02 320.22,378.8 313.11,373.29 306.25,367.46 300.11,361.73 293.85,355.27 288.72,349.39 283.22,342.27 279.22,336.28 275.68,330.02 272.93,324.02 270.73,317.8 269.4,312.57 268.38,306.05 268.1,298.26 268.74,291.09 270.21,284.05 272.66,276.65 275.9,269.56 280.12,262.29 284.93,255.41 291.4,247.52 298.8,239.67 308.05,231.11 317.43,223.63 325.9,217.95 333.26,213.91 341.56,210.46 349.08,208.39 354.41,207.54 359.8,207.19 365.79,207.37 370.56,207.92 375.87,208.92 382.24,210.62 387.93,212.53 394.06,214.97 405.44,220.38 417.99,227.42 429.7,234.73 452.78,249.87 464.65,256.9 471.06,260.17 476.54,262.62 482.7,264.98 488.41,266.83" fill="none" stroke="#d1ab9a" stroke-width="1"/><polyline id="SvgjsPolyline1675" points="599.94,386.22 580.02,377.87 563.69,370.31 549.28,362.92 534.74,354.5 523.26,346.84 512.89,338.68 508.9,335.05 504.69,330.77 501.55,327.14 498.32,322.82 495.5,318.21 493,312.76 491.47,307.59 490.84,303.44 490.82,298.04 491.54,293.3 493.32,287.58 495.63,282.7 497.56,279.67 499.63,277.5 502.11,275.83 504.88,274.69 508.4,273.93 512.58,273.6 517.38,273.66 524.56,274.18" fill="none" stroke="#d1ab9a" stroke-width="1"/><polyline id="SvgjsPolyline1676" points="599.54,371.8 586.62,365.43 575.54,359.44 564.22,352.64 553.82,345.54 544.9,338.44 537.94,331.84 532.46,325.47 529.7,321.55 527.85,318.46 525.76,314.14 524.35,310.19 523.3,305.51 522.94,301.33 523.12,297.13 523.82,293 525.01,288.97 526.86,284.54 528.02,282.44 529.53,280.58 531.39,279.07 533.53,277.99 536.41,277.18 538.79,276.86 547.18,276.83" fill="none" stroke="#d1ab9a" stroke-width="1"/><polyline id="SvgjsPolyline1677" points="138.71,330.39 133.91,327.93 130.56,325.4 127.77,322.27 125.65,318.65 123.81,313.58 122.84,308.88 122.29,302.91 122.4,296.32 122.96,291.55 124.02,286.87 125.21,283.48 126.83,280.27 129.52,276.29 133.27,271.61 137.36,267.22 143.5,261.49 150.46,255.79 158.19,250.1 168.67,243.1 178.88,236.8 191.85,229.26 207.05,220.8 248.79,198.32 280.21,182.03 306.18,169.58 313.93,166.34 320.73,163.98 327.12,162.32 333.03,161.34 337.82,160.97 342.02,160.96 350.37,161.79 359.73,163.91 370.51,167.6 385.35,174.09 421.4,191.88 442.06,201.52 461.92,210.02 495.34,223.4 507.93,229.03 514.3,232.39 519.4,235.54 524.72,239.45 528.34,242.6 532.55,246.88 535.68,250.51 548.48,267.16 551.33,270.24 553.57,272.24 556.51,274.31 560.28,276.14 564.88,277.51 569.6,278.35" fill="none" stroke="#d1ab9a" stroke-width="1"/><polyline id="SvgjsPolyline1678" points="599.99,359.57 590.69,354.09 582.14,348.52 574.39,342.87 567.47,337.11 561.45,331.26 556.4,325.32 552.7,319.86 549.73,313.97 548.34,310.01 547.51,306.51 547.06,302.94 546.98,299.94 547.25,296.35 547.91,292.81 548.92,289.36 550.45,285.45 551.29,283.86 552.78,281.98 554.16,280.84 555.74,279.97 558.01,279.22 560.38,278.82 566.37,278.65" fill="none" stroke="#d1ab9a" stroke-width="1"/><polyline id="SvgjsPolyline1679" points="599.67,346.82 593.42,342.16 586.99,336.75 581.82,331.74 578.22,327.72 574.59,322.95 571.46,317.83 569.22,312.92 567.8,308.34 566.93,302.41 567.15,296.42 568.25,291.14 569.59,287.16 570.61,284.99 572.49,282.67 575.03,281.11 578.52,280.25 583.91,280.02" fill="none" stroke="#d1ab9a" stroke-width="1"/><polyline id="SvgjsPolyline1680" points="349.01,161.37 354.32,162.33 361.29,164.17 366.98,166.07 374.24,168.91 386.82,174.59 431.03,196.16 446.37,203.01 461.91,209.39 474.82,214.27 487.84,218.84 531.83,232.96 538.58,235.46 545.17,238.35 549.41,240.6 553.45,243.19 556.77,245.77 560.27,249.05 565.66,255.48 575.85,270.31 578.16,273.08 580.31,275.17 582.72,276.94 585.39,278.3 588.24,279.25 592.95,280.14" fill="none" stroke="#d1ab9a" stroke-width="1"/><polyline id="SvgjsPolyline1681" points="599.86,331.9 596.63,328.35 593.64,324.6 590.63,320.12 588.62,316.43 586.96,312.57 585.73,308.56 585.05,305.03 584.75,300.84 584.99,296.65 585.75,292.52 587.36,287.37 588.79,284.74 590.49,283.06 592.62,281.97 595.54,281.33 599.73,281.13" fill="none" stroke="#d1ab9a" stroke-width="1"/><polyline id="SvgjsPolyline1682" points="500.03,222.57 520.2,228.42 558.49,238.52 567.62,241.47 574.77,244.58 578.91,247.01 581.8,249.14 584.91,251.97 586.93,254.18 590.55,258.97 599.91,273.63" fill="none" stroke="#d1ab9a" stroke-width="1"/><polyline id="SvgjsPolyline1683" points="154.39,335.01 147.47,333.02 141.83,330.99 136.99,328.59 133.58,326.15 130.31,322.65 128.15,319.06 126.42,314.58 125.34,309.91 124.64,303.35 124.7,296.75 125.54,290.21 126.94,285 128.91,280.63 131.91,276.14 136.07,271.02 141.48,265.41 147.28,260.19 154.31,254.57 161.59,249.29 171.59,242.65 180.77,236.97 194.24,229.1 228.38,210.25 269.14,188.5 287.34,179.28 303.03,171.75 312.37,167.67 319.7,165 325.47,163.37 331.95,162.14 336.73,161.67 340.93,161.57 345.72,161.81 350.48,162.41 355.19,163.33 360.42,164.69 371.74,168.65 384.92,174.45 430.6,197.13 471.37,216.17 482.13,221.48 490.02,225.8 496.64,229.93 502,233.78 507.08,238 511,241.71 515.51,246.53 530.47,264.51 533.85,267.92 536.61,270.23 540.11,272.54 544.47,274.55 549.07,275.92 555.55,277.11" fill="none" stroke="#d1ab9a" stroke-width="1"/><polyline id="SvgjsPolyline1684" points="143.6,333.28 136.61,331.59 129.73,329.46 125.35,327.51 122.31,325.58 119.66,323.16 117.2,319.76 115.45,315.95 114.03,310.74 113.21,304.2 113.21,297 114.02,290.46 115.43,285.25 117.47,280.91 120.81,275.94 125,270.83 130,265.66 134.43,261.61 140.45,256.66 152.61,247.87 167.31,238.57 188.16,226.69 233.77,202.55 274.36,181.78 289.47,174.44 304.17,167.63 312.47,164.14 319.83,161.57 325.04,160.16 329.16,159.33 333.92,158.71 338.71,158.47 344.11,158.65 348.28,159.11 353.01,159.95 358.83,161.39 367.38,164.2 375.73,167.55 385.58,171.98 417,186.93 426.33,191.05 435.78,194.89 445.95,198.54 454.56,201.13 462.16,202.92 468.67,203.99 474.64,204.49 480.64,204.43 486,203.81 491.26,202.6 496.37,200.86 500.78,198.95 516.62,190.41 523.69,187.13 528.23,185.56 531.71,184.67 536.45,183.88 540.03,183.59 545.43,183.58 550.22,183.95 556.15,184.8 562.62,186.12 570.18,188.06 578.23,190.46 599.8,197.83" fill="none" stroke="#d1ab9a" stroke-width="1"/><polyline id="SvgjsPolyline1685" points="338.01,160.4 344,160.5 351.74,161.49 359.9,163.44 367.31,165.88 375.67,169.21 383.34,172.64 424.88,192.85 435.8,197.83 449.05,203.46 463.62,209.04 474.99,212.87 487.11,216.31 498.26,218.66 505.4,219.56 512,219.79 517.98,219.32 524.42,217.91 529.49,216.07 534.34,213.7 548.6,204.81 554.38,201.65 559.94,199.39 566.34,197.8 572.9,197.15 580.69,197.38 589.02,198.48 599.59,200.7" fill="none" stroke="#d1ab9a" stroke-width="1"/><polyline id="SvgjsPolyline1686" points="24.64,320.19 17.48,319.49 13.38,318.62 11.71,317.93 10.22,316.93 8.35,314.61 7.17,311.86 6.52,309.55 5.73,303.6 5.82,295.21 6.28,291.64 6.98,288.73 9.06,283.75 12.07,278.56 15.61,273.72 19.97,268.77 25.13,263.75 31.08,258.7 37.78,253.64 46.73,247.6 60.12,239.6 77.1,230.63 97.15,221.11 120.25,211.04 149.68,198.99 274.5,149.16 304.77,137.62 311.59,135.3 318.53,133.38 325.6,132.07 332.18,131.56 339.37,131.82 345.9,132.76 352.33,134.25 358.65,136.14 382.89,144.96 392.6,148.09 402.53,150.4 407.28,151.08 412.07,151.43 416.87,151.41 421.05,151.07 429.3,149.52 436.19,147.44 454.21,140.82 459.98,139.17 463.5,138.42 468.26,137.75 474.25,137.47 479.64,137.73 486.77,138.71 494.96,140.56 503.02,142.94 512.09,146.07 523.3,150.36 543.27,158.57 571.95,170.87 586.72,177.52 599.7,183.76" fill="none" stroke="#d1ab9a" stroke-width="1"/><polyline id="SvgjsPolyline1687" points="549.76,599.96 482.92,588.65 424.54,577.66 371.67,566.67 335.96,558.68 294.49,548.93 288.6,547.75 283.85,547.08 276.67,546.71 268.89,547.25 261.8,548.49 243.64,552.49 237.08,553.26 232.29,553.39 225.7,552.96 219.77,552.05 201.63,547.94 194.55,546.66 188.58,546.05 182.59,546 178.4,546.31 173.65,547 153.13,551.43 147.77,552.08 141.77,552.25 137.58,552.02 131.63,551.26 125.74,550.13 106.44,545.71 99.92,544.65 93.35,544.12 87.95,544.2 81.99,544.85 77.27,545.73 65.58,548.46 59.09,549.61 52.51,550.11 45.92,549.89 35.83,548.42 13.03,543.15 6.54,541.93 0.59,541.18" fill="none" stroke="#d1ab9a" stroke-width="1"/><polyline id="SvgjsPolyline1688" points="599.98,459.31 566.2,450.96 535.46,442.79 507.2,434.7 478.56,425.78 455.27,417.85 432.23,409.23 410.63,400.23 391.62,391.32 375.2,382.59 366.93,377.71 359.35,372.87 353.41,368.79 346.68,363.76 340.19,358.43 335.3,354 330.63,349.34 325.83,343.97 321.4,338.3 318.37,333.83 315.34,328.65 312.96,323.81 310.95,318.8 309.18,313.06 307.85,306.6 307.31,301.23 307.47,296.44 308.36,290.51 309.98,284.11 312.22,277.91 315.03,271.94 318.66,265.72 322.79,259.83 328.14,253.36 334.82,246.46 340.66,241.29 346.47,237.05 352.16,233.71 358.74,230.79 364.47,229.02 369.17,228.07 372.74,227.63 377.54,227.4 381.74,227.52 385.92,227.91 391.25,228.77 400.56,231.1 409.63,234.22 419.6,238.37 451.46,253.8 464.63,259.62 477.03,264.13 488.57,267.41" fill="none" stroke="#d1ab9a" stroke-width="1"/><polyline id="SvgjsPolyline1689" points="599.9,466.39 564.89,458 531.19,449.3 501.72,441.07 474.16,432.71 450.24,424.79 426.56,416.17 404.88,407.38 385.22,398.42 367.12,389.02 352.7,380.41 344.72,375.07 338.42,370.47 332.32,365.62 326.89,360.89 321.7,355.9 316.79,350.63 312.58,345.55 309.04,340.71 305.81,335.65 302.67,329.85 300.24,324.36 298.44,319.27 296.67,312.3 295.7,305.77 295.43,299.18 295.88,292.6 297.03,286.1 299.03,279.19 301.72,272.51 305.31,265.59 309.86,258.54 315,251.89 321.46,244.8 328.46,238.23 335.56,232.7 341.63,228.83 348.05,225.58 354.79,223.07 358.85,222 364.17,221.08 368.95,220.69 374.35,220.72 379.13,221.14 384.46,222 389.72,223.21 395.48,224.91 403.92,228.01 413.26,232.12 425.57,238.35 446.61,249.9 457.25,255.44 467.06,259.96 477.71,264.03" fill="none" stroke="#d1ab9a" stroke-width="1"/><polyline id="SvgjsPolyline1690" points="599.46,398.78 574.14,389.39 553.04,380.75 531.23,370.76 520.53,365.33 512.1,360.73 503.31,355.55 496.24,351.02 489.35,346.21 483.17,341.45 478.15,337.17 472.55,331.74 468.18,326.8 464.95,322.47 461.29,316.28 458.81,310.17 457.59,304.91 457.24,298.93 457.98,292.99 459.72,287.25 462.88,280.79 464.81,277.75 466.72,275.44 469.98,272.81 473.2,271.21 477.24,270.07 482,269.5 486.8,269.45 492.79,269.82 514.81,272.63" fill="none" stroke="#d1ab9a" stroke-width="1"/><polyline id="SvgjsPolyline1691" points="599.6,378.83 583.21,371.39 567.14,363.28 554.61,356.18 543.5,349.06 533.85,341.94 525.7,334.85 521.91,331 517.98,326.48 513.14,319.61 510.87,315.39 509.07,310.94 507.73,305.71 507.24,300.94 507.46,296.15 508.36,291.44 510.1,286.34 512.22,282.03 514.04,279.65 515.86,278.1 518.5,276.69 521.37,275.83 524.34,275.4 528.54,275.23 538.72,275.79" fill="none" stroke="#d1ab9a" stroke-width="1"/><polyline id="SvgjsPolyline1692" points="599.58,392.29 579.47,384.4 559.64,375.84 541.81,367.25 525.48,358.34 511.78,349.69 505.92,345.52 500.24,341.09 495.25,336.77 491.36,333.02 487.68,329.07 483.9,324.42 480.57,319.43 477.83,314.1 476.02,309.01 474.92,303.12 474.85,297.73 475.66,292.4 477.5,286.69 479.84,281.83 481.74,278.78 484.18,276.13 487.16,274.13 490.5,272.81 494.62,271.99 499.4,271.71 504.8,271.87 512.57,272.56" fill="none" stroke="#d1ab9a" stroke-width="1"/><polyline id="SvgjsPolyline1693" points="599.59,365.85 587.44,359.32 576.63,352.85 566.69,346.13 558.63,339.88 551.53,333.42 545.87,327.22 541.63,321.4 538.44,315.63 536.87,311.74 535.73,307.7 535.09,303.55 534.92,299.36 535.19,295.77 535.99,291.65 537.27,287.65 538.98,283.82 540.35,281.85 541.64,280.59 543.66,279.3 545.9,278.46 548.25,277.98 551.24,277.72 558.43,277.84" fill="none" stroke="#d1ab9a" stroke-width="1"/><polyline id="SvgjsPolyline1694" points="599.94,312.21 598.28,306.45 597.64,300.49 598.1,294.52 599.8,288.15" fill="none" stroke="#d1ab9a" stroke-width="1"/><polyline id="SvgjsPolyline1695" points="446.64,202.87 459.98,208.28 471.23,212.46 483.17,216.49 494.67,219.93 505.13,222.58 513.37,224.22 520.51,225.18 527.09,225.52 531.89,225.31 536.63,224.61 540.69,223.54 544.62,222.05 551.52,218.43 567.07,208.23 571.35,206.06 575.83,204.35 581.08,203.08 586.44,202.47 592.44,202.44 599.61,203.08" fill="none" stroke="#d1ab9a" stroke-width="1"/><polyline id="SvgjsPolyline1696" points="474.57,213.94 496.22,221.07 506.6,224.05 518.82,227.11 526.46,228.69 534.76,229.97 540.74,230.47 546.74,230.45 550.91,230.01 553.85,229.43 559.55,227.55 563.34,225.74 566.45,223.94 579.7,214.62 585.4,211.31 588.69,209.85 592.1,208.7 595.61,207.88 599.77,207.32" fill="none" stroke="#d1ab9a" stroke-width="1"/><polyline id="SvgjsPolyline1697" points="520.31,228.14 535.5,231.72 548.48,234.07 558.64,235.01 562.83,234.99 567.02,234.62 569.97,234.08 573.43,233.1 579.45,230.42 584.02,227.55 594.08,219.96 599.62,216.37" fill="none" stroke="#d1ab9a" stroke-width="1"/><polyline id="SvgjsPolyline1698" points="536.53,232.42 549.41,235.32 561.78,237.72 570.08,238.99 579.04,239.77 585.04,239.67 590.38,238.9 594.98,237.56 599.85,235.22" fill="none" stroke="#d1ab9a" stroke-width="1"/><polyline id="SvgjsPolyline1699" points="551.68,236.09 574.52,241.19 584.98,243.85 593.48,246.79 596.74,248.33 599.85,250.14" fill="none" stroke="#d1ab9a" stroke-width="1"/><polyline id="SvgjsPolyline1700" points="0.11,275.09 5.59,268.72 12.55,262.12 20.99,255.38 30.86,248.56 40.57,242.59 53.69,235.32 66.01,229.09 81.22,221.96 104.89,211.71 131.59,200.92 274.2,145.49 307.39,133.19 315.42,130.74 323.64,129 329.6,128.38 335.6,128.35 340.38,128.74 346.89,129.83 352.72,131.27 359.03,133.2 380.49,140.89 389.64,143.78 398.99,145.96 403.74,146.66 408.52,147.03 413.32,147.03 417.51,146.71 425.18,145.35 433.24,142.98 451.32,136.53 460.06,134.42 465.42,133.75 470.22,133.58 475.61,133.84 482.15,134.72 493.24,137.32 506.37,141.58 517.61,145.78 566.2,164.84 582.57,170.76 599.64,176.46" fill="none" stroke="#d1ab9a" stroke-width="1"/><polyline id="SvgjsPolyline1701" points="477.84,599.93 434.15,592.02 396.45,584.71 347.7,574.58 294.98,562.88 289.08,561.76 283.73,561.09 277.13,560.86 270.55,561.34 264.04,562.41 246.42,566.08 240.46,566.75 235.67,566.88 230.87,566.63 224.92,565.86 206.73,562 200.82,560.98 195.45,560.41 188.85,560.33 179.92,561.33 159.93,565.39 155.75,565.84 150.96,566.02 145.57,565.76 139.02,564.9 116.72,560.2 107.2,559.01 102.4,558.9 95.82,559.38 89.9,560.36 74.64,563.58 68.68,564.27 64.48,564.4 58.49,564.09 53.14,563.39 28.49,558.18 18.99,556.83 14.19,556.6 10,556.7 4.63,557.26 0.49,557.99" fill="none" stroke="#d1ab9a" stroke-width="1"/><polyline id="SvgjsPolyline1702" points="599.87,446.95 570.85,439.33 541.97,431.21 514.98,423.03 489.33,414.6 466.18,406.29 444.97,397.93 425.72,389.54 408.45,381.15 393.18,372.81 378.92,363.93 367.23,355.53 356.68,346.64 352.36,342.48 347.44,337.22 343.61,332.6 340.08,327.76 337.19,323.19 334.91,318.97 332.73,314.03 331.22,309.48 330.23,304.78 329.89,300.6 330.08,296.41 330.92,291.68 332.31,287.09 334.13,282.65 336.59,277.85 340.08,272.24 344.73,265.99 349.45,260.55 354.93,255 359.83,250.58 364.15,247.35 368.25,244.85 373.12,242.53 378.22,240.77 385.27,239.32 388.85,238.97 393.65,238.87 402.61,239.64 411.43,241.4 418.95,243.5 426.91,246.17 454.87,257.03 465.58,260.94 474.72,263.89 482.81,266.16" fill="none" stroke="#d1ab9a" stroke-width="1"/><polyline id="SvgjsPolyline1703" points="599.46,411.38 582.92,405.97 564.77,399.69 537.26,389.33 522.84,383.39 511.3,378.32 499.36,372.71 488.64,367.3 478.64,361.84 469.35,356.33 461.79,351.44 453.02,345.15 445.57,339.09 439.87,333.77 434.21,327.56 430.6,322.78 428.65,319.75 426.39,315.52 424.98,312.2 423.88,308.78 423.22,305.85 422.77,302.28 422.72,298.68 423.06,295.1 423.94,291 425.06,287.58 428.16,281.09 430.73,277.03 433.61,273.19 435.64,270.99 437.95,269.07 442.09,266.66 447.2,264.94 452.53,264.12 458.52,263.97 463.91,264.3 472.25,265.34 502.98,270.7" fill="none" stroke="#d1ab9a" stroke-width="1"/><polyline id="SvgjsPolyline1704" points="599.99,405.15 572.82,395.6 545.99,385.13 524.01,375.5 513.74,370.56 503.07,365.06 494.16,360.09 485.94,355.13 477.43,349.51 471.13,344.92 465.98,340.8 460.59,336.02 455.51,330.92 451.6,326.37 447.12,319.99 444.07,314.14 441.96,307.9 441.38,304.96 441.03,301.37 441.33,295.39 441.88,292.44 442.87,288.98 445.47,282.92 449.58,276.3 452.78,272.73 456.19,270.3 460.03,268.61 464.69,267.5 470.67,267.03 476.07,267.18 483.23,267.86 492.74,269.2" fill="none" stroke="#d1ab9a" stroke-width="1"/><polyline id="SvgjsPolyline1705" points="0.27,257.08 7.55,251.8 16.61,245.92 26.44,240.15 36.47,234.74 47.2,229.36 58.6,224 86.14,212.11 125.24,196.77 197.76,169.73 278.01,139.37 307.38,128.83 315.43,126.45 321.89,125.08 327.24,124.41 333.24,124.22 338.63,124.55 345.15,125.55 350.99,126.92 356.17,128.43 377.71,135.9 386.89,138.72 396.26,140.8 405.2,141.71 409.4,141.7 413.59,141.39 421.86,139.92 428.77,137.93 446.34,131.83 455.08,129.71 459.84,129.07 464.03,128.84 468.83,128.94 473.61,129.39 483.62,131.28 495.15,134.6 505.36,138.14 532.31,148.28 544.18,152.51 556.19,156.32 565.47,158.77 574.9,160.59 583.85,161.41 588.05,161.39 592.24,161.05 596.38,160.38 599.88,159.53" fill="none" stroke="#d1ab9a" stroke-width="1"/><polyline id="SvgjsPolyline1706" points="411.83,599.97 361.18,590.08 294.24,576.02 288.92,575.1 283.56,574.52 276.96,574.43 270.98,574.95 249.77,579.01 245.01,579.61 239.62,579.87 234.82,579.7 229.46,579.1 208.86,575.04 204.11,574.36 198.12,573.95 193.92,574 188.55,574.49 168.52,578.33 163.16,578.99 158.36,579.19 154.17,579.06 148.8,578.5 142.88,577.5 125.24,573.91 120.49,573.26 115.1,572.89 109.71,572.99 104.93,573.48 86.68,577.03 81.32,577.71 77.73,577.91 71.73,577.77 65.77,577.11 41.64,572.32 36.3,571.56 30.31,571.15 24.92,571.26 20.14,571.77 0.11,575.56" fill="none" stroke="#d1ab9a" stroke-width="1"/><polyline id="SvgjsPolyline1707" points="599.94,434.58 575.67,427.77 551.53,420.56 526.96,412.69 505.97,405.45 485.17,397.69 467.93,390.71 452,383.71 435.79,375.89 421.51,368.24 408.14,360.21 396.74,352.44 387.75,345.44 378.43,336.96 371.59,329.4 367.97,324.61 365.68,321.09 363.64,317.43 361.89,313.61 360.68,310.22 359.66,306.15 359.11,301.38 359.16,297.78 359.6,294.21 360.57,290.13 361.75,286.73 363.74,282.36 366.44,277.69 369.88,272.77 373.28,268.58 378.18,263.3 382.52,259.16 385.82,256.57 389.37,254.33 393.7,252.26 399.99,250.29 407.11,249.25 414.9,249.22 422.65,250.07 429.73,251.42 437.88,253.44 467.77,262.38 479.93,265.68" fill="none" stroke="#d1ab9a" stroke-width="1"/><polyline id="SvgjsPolyline1708" points="599.69,440.64 571.33,432.91 545.41,425.36 521.92,418.03 499.17,410.39 479.43,403.23 458.78,395.08 441.17,387.45 426.53,380.5 410.08,371.82 397.19,364.15 385.25,356.11 374.83,348.02 366.38,340.36 362.62,336.49 358.29,331.51 354.64,326.75 351.97,322.76 349.31,318.06 347.55,314.25 345.79,309.15 345.01,305.64 344.59,302.06 344.59,297.86 345.13,293.7 346.15,289.63 347.81,285.13 349.9,280.81 352.98,275.66 356.84,270.31 361.49,264.81 366.06,260.06 371.34,255.16 374.67,252.6 378.73,250.05 383.61,247.74 390.48,245.61 397.6,244.57 405.39,244.53 414.33,245.58 422.54,247.34 431.2,249.77 461.32,259.98 472.77,263.56" fill="none" stroke="#d1ab9a" stroke-width="1"/><polyline id="SvgjsPolyline1709" points="599.69,422.97 578.44,416.55 557.88,409.95 541.4,404.35 521.66,397.2 503.22,389.99 486.64,382.97 474.09,377.23 460.65,370.57 448.52,363.99 437.2,357.2 427.23,350.53 419.55,344.77 411.35,337.75 404.61,330.92 399.68,324.88 395.18,317.79 393.6,314.56 392.1,310.64 391.03,306.58 390.57,303.61 390.37,300.62 390.56,296.43 391.02,293.47 392.09,289.4 393.83,284.94 395.74,281.19 398.27,277.12 400.74,273.72 404.18,269.56 407.48,266.08 410.73,263.43 413.79,261.53 418.74,259.38 424.56,257.94 431.12,257.35 438.32,257.58 444.87,258.36 453.14,259.85 487.66,267.69" fill="none" stroke="#d1ab9a" stroke-width="1"/><polyline id="SvgjsPolyline1710" points="599.62,417.11 581.3,411.36 563.08,405.31 532.61,394.3 519.22,389.02 505.93,383.45 492.8,377.56 481.45,372.09 469.74,365.99 460.34,360.67 450.65,354.67 442.72,349.25 436.02,344.2 429.15,338.38 423.15,332.51 418.03,326.62 414.85,322.26 412.65,318.69 410.74,314.95 409.39,311.61 408.35,308.17 407.65,304.64 407.36,301.65 407.38,298.05 407.79,294.48 408.74,290.39 410.14,286.43 411.38,283.7 413.4,280.02 415.7,276.5 418.59,272.68 421.35,269.51 425.5,266.07 430.26,263.54 435.42,261.95 441.95,261.09 447.95,261.07 455.12,261.7 464.01,263.08 477.55,265.76" fill="none" stroke="#d1ab9a" stroke-width="1"/><polyline id="SvgjsPolyline1711" points="0.24,242.27 17.67,232.9 37.18,223.63 59.23,214.16 86.58,203.37 112.45,193.76 193.23,164.84 283.42,131.95 307.81,123.53 314.15,121.7 320.01,120.41 325.95,119.6 331.94,119.37 337.33,119.66 343.27,120.51 353.75,123.09 376.52,130.69 385.17,133.17 393.99,134.92 401.76,135.58 409.55,135.25 417.82,133.8 424.17,132.02 441.23,126.28 449.98,124.19 454.74,123.56 459.53,123.33 464.33,123.47 468.5,123.89 476.77,125.38 487.19,128.2 497.44,131.6 523.44,140.88 536.6,145 547.69,147.66 557.79,149.05 561.98,149.22 566.78,149.07 574.49,147.93 580.27,146.34 594.36,141.19 599.52,139.6" fill="none" stroke="#d1ab9a" stroke-width="1"/><polyline id="SvgjsPolyline1712" points="349.37,599.92 293.5,588.63 287.56,587.74 281.58,587.33 276.78,587.42 272,587.87 251.35,591.65 247.18,592.13 242.38,592.35 236.99,592.15 232.22,591.61 212.77,587.94 207.41,587.25 202.62,586.97 197.82,587.07 193.64,587.46 174.17,591.03 170,591.54 165.21,591.8 160.41,591.68 155.04,591.13 133.81,587.15 127.86,586.39 123.07,586.13 114.69,586.58 96.4,589.94 91.64,590.55 87.45,590.79 82.65,590.71 76.09,590.04 53.69,585.8 47.74,585.04 43.54,584.79 38.15,584.88 32.78,585.45 18.05,588.27 12.1,589.07 6.11,589.3 0.12,588.95" fill="none" stroke="#d1ab9a" stroke-width="1"/><polyline id="SvgjsPolyline1713" points="599.78,428.68 576.74,421.97 556.68,415.77 537.86,409.61 520.29,403.5 501.18,396.38 486.69,390.59 471.8,384.21 456.57,377.12 443.21,370.31 431.17,363.56 419.97,356.59 410.61,350.07 402.59,343.77 394.59,336.52 388.47,329.92 383.36,323.26 380.82,319.19 378.9,315.46 377.31,311.57 376.14,307.54 375.51,304 375.27,299.81 375.56,295.62 376.23,292.08 377.65,287.5 379.32,283.65 381.63,279.44 384.27,275.44 387.95,270.7 391.54,266.66 395.36,262.85 398.65,260.25 401.71,258.34 404.39,257.01 410.05,255.04 417.14,253.83 424.34,253.67 432.7,254.45 441.55,256.05 449.73,257.97 470.61,263.5" fill="none" stroke="#d1ab9a" stroke-width="1"/><polyline id="SvgjsPolyline1714" points="0.21,228.52 17.71,220.62 37.67,212.35 57.81,204.56 83.74,195.1 187.58,159.42 288.37,124.1 308.88,117.34 314.68,115.78 320.56,114.61 325.92,113.98 331.32,113.82 335.51,114.03 341.46,114.8 346.75,115.9 352.54,117.44 373.67,124.27 381.18,126.37 389.41,128.02 397.78,128.75 404.97,128.47 412.66,127.22 420.76,125.01 435.59,120.16 444.34,118.07 449.69,117.37 453.29,117.18 461.67,117.56 469.96,118.91 478.68,121.11 486.71,123.59 511.14,131.9 523.22,135.47 533.77,137.74 542.71,138.7 550.51,138.55 558.2,137.32 564.56,135.54 578.17,130.84 585.14,129.05 592.27,128.12 599.47,128.11" fill="none" stroke="#d1ab9a" stroke-width="1"/><polyline id="SvgjsPolyline1715" points="288.82,599.99 281.64,599.52 273.86,599.95" fill="none" stroke="#d1ab9a" stroke-width="1"/><polyline id="SvgjsPolyline1716" points="211.92,599.96 204.73,599.65 199.35,599.97" fill="none" stroke="#d1ab9a" stroke-width="1"/><polyline id="SvgjsPolyline1717" points="137.39,599.95 130.2,599.53 123.02,599.94" fill="none" stroke="#d1ab9a" stroke-width="1"/><polyline id="SvgjsPolyline1718" points="151.37,599.98 138.38,597.62 129.41,596.97 124.62,597.15 120.44,597.6 108.05,599.89" fill="none" stroke="#d1ab9a" stroke-width="1"/><polyline id="SvgjsPolyline1719" points="63.62,599.96 55.25,599.31 51.06,599.4 45.68,599.93" fill="none" stroke="#d1ab9a" stroke-width="1"/><polyline id="SvgjsPolyline1720" points="83.91,599.96 63.26,596.17 53.72,595.18 48.92,595.2 44.14,595.6 27.02,598.69 19.26,599.49 10.87,599.26 0.19,597.67" fill="none" stroke="#d1ab9a" stroke-width="1"/><polyline id="SvgjsPolyline1721" points="0.1,215.33 16.85,208.75 35.41,201.86 77.93,187.14 180.6,153.62 290.93,116.53 308.66,110.92 314.47,109.42 319.78,108.4 325.14,107.79 329.94,107.64 335.33,107.93 340.68,108.66 350.61,110.97 369.51,116.87 377.6,119.09 385.25,120.61 393.62,121.34 400.81,121.07 407.92,119.96 414.32,118.35 430.93,113.17 438.52,111.4 446.86,110.49 455.25,110.74 462.38,111.77 471.72,113.97 501.46,123.41 511.28,126.14 520.1,127.95 528.44,128.84 535.64,128.75 543.35,127.64 549.74,125.97 565.74,120.85 570.42,119.78 574.57,119.16 580.55,118.81 586.55,119.06 592.5,119.81 599.56,121.19" fill="none" stroke="#d1ab9a" stroke-width="1"/><polyline id="SvgjsPolyline1722" points="0.11,202.4 23.92,194.14 55.85,183.68 180.74,144.82 286.37,110.72 309.32,103.7 313.99,102.56 319.89,101.5 324.67,101.02 329.46,100.91 335.45,101.31 340.2,102.01 349.54,104.19 367.35,109.56 373.73,111.25 381.38,112.74 387.95,113.4 393.94,113.4 401.69,112.51 409.29,110.78 423.08,106.61 430.04,104.79 437.14,103.6 444.32,103.24 451.5,103.72 460.36,105.28 469.07,107.55 490.28,114.11 497.8,116.2 506.59,118.11 514.32,119.09 522.12,119.19 529.85,118.25 537.43,116.39 552.92,111.67 558.8,110.47 564.77,109.86 573.16,110.04 580.88,111.09 589.09,112.87 599.5,115.77" fill="none" stroke="#d1ab9a" stroke-width="1"/><polyline id="SvgjsPolyline1723" points="0.07,189.68 49.37,174.44 178.27,136.38 297.52,99.57 310.21,95.97 319.64,94.17 325.02,93.72 329.22,93.7 333.41,93.97 338.16,94.6 347.54,96.67 363.67,101.35 371.81,103.41 378.9,104.65 386.08,105.18 393.87,104.8 400.38,103.73 405.63,102.47 420.03,98.29 428.82,96.37 435.98,95.65 443.17,95.8 450.31,96.71 457.94,98.35 482.14,105.37 491.45,107.72 499.12,109.08 506.3,109.67 512.89,109.49 519.42,108.57 525.84,107.03 539.07,103.11 546.7,101.48 553.26,100.85 559.26,100.92 567.01,101.8 575.24,103.46 585.09,106.09 599.43,110.5" fill="none" stroke="#d1ab9a" stroke-width="1"/><polyline id="SvgjsPolyline1724" points="0.42,176.96 36.75,166.52 166.18,130.29 301.99,90.22 310.69,87.94 318.36,86.54 326.74,86.01 331.54,86.22 336.3,86.79 345.11,88.61 361.88,93.26 368.88,94.94 375.98,96.11 383.16,96.55 389.16,96.27 395.68,95.31 401.53,93.97 415.98,89.95 423.61,88.36 430.78,87.65 437.37,87.75 443.93,88.51 450.98,89.92 473.54,96.16 482.28,98.29 489.37,99.51 496.55,100.07 503.74,99.81 509.67,98.93 516.09,97.41 528.79,93.82 534.66,92.58 541.22,91.85 547.82,91.86 556.16,92.8 564.97,94.62 599.6,104.44" fill="none" stroke="#d1ab9a" stroke-width="1"/><polyline id="SvgjsPolyline1725" points="0.51,164.43 155.91,123.09 194.64,112.32 303.15,81.53 311.9,79.41 319.01,78.3 326.8,77.97 331.59,78.26 335.75,78.8 344.56,80.64 360.21,84.83 366.65,86.27 373.77,87.32 379.16,87.62 385.15,87.39 392.28,86.37 397.55,85.19 412.04,81.34 418.51,80.04 425.67,79.32 432.87,79.46 438.82,80.17 445.3,81.43 467.92,87.42 474.36,88.87 480.87,89.92 487.45,90.41 494.05,90.2 501.17,89.16 518,84.78 525.05,83.33 531.62,82.68 538.21,82.76 544.18,83.4 550.67,84.57 558.84,86.53 585.47,93.76 592.53,95.21 599.66,96.17" fill="none" stroke="#d1ab9a" stroke-width="1"/><polyline id="SvgjsPolyline1726" points="0.28,152.06 137.59,117.5 189.8,103.7 300.95,73.43 310.28,71.16 317.38,69.99 325.16,69.57 333.53,70.22 341.78,71.79 362.75,76.98 369.86,78.08 375.85,78.44 382.44,78.16 387.79,77.42 394.24,76.04 407.61,72.61 414.09,71.36 420.65,70.72 426.65,70.75 433.21,71.43 439.11,72.51 458.88,77.53 467.08,79.34 473.61,80.31 479.6,80.68 486.19,80.41 491.54,79.66 497.4,78.39 509.6,75.23 516.08,73.99 522.05,73.43 528.64,73.51 534.61,74.15 541.1,75.32 568.42,82.31 579.01,84.42 585.57,85.14 590.37,85.27 595.16,85.02 599.91,84.37" fill="none" stroke="#d1ab9a" stroke-width="1"/><polyline id="SvgjsPolyline1727" points="0.24,139.69 79.06,121 135.03,107.4 189.12,93.69 301.74,64.26 309.92,62.36 317.03,61.25 324.82,60.9 332.59,61.53 340.84,63.08 360.1,67.68 366.62,68.67 372.01,69.03 377.4,68.92 383.95,68.15 389.84,66.97 407.35,62.84 413.3,62.03 419.29,61.79 425.28,62.14 431.22,62.99 438.26,64.47 458.09,69.27 464.6,70.33 469.98,70.79 474.78,70.82 481.35,70.23 488.42,68.88 504.76,65 510.11,64.27 514.9,64.01 521.49,64.28 528.03,65.15 536.26,66.86 558.39,72.34 565.47,73.63 571.43,74.28 578.63,74.36 584,73.84 590.48,72.61 599.79,70.25" fill="none" stroke="#d1ab9a" stroke-width="1"/><polyline id="SvgjsPolyline1728" points="0.39,127.33 75.89,110.28 130.82,97.5 186.79,83.9 301.44,55.13 309.04,53.41 316.16,52.3 323.94,51.95 331.12,52.5 338.21,53.73 358.69,58.37 364.04,59.12 370.02,59.46 376.02,59.21 381.37,58.51 398.92,54.54 406.01,53.26 411.38,52.76 417.98,52.8 422.76,53.25 428.09,54.11 452.66,59.67 459.79,60.65 465.19,60.92 470.58,60.71 476.53,59.93 493.49,56.06 498.21,55.2 504.18,54.59 509.58,54.55 515.55,55.04 522.07,56.09 549.55,62.38 556.08,63.34 562.07,63.74 568.06,63.56 572.83,62.98 591.56,58.78 599.88,57.71" fill="none" stroke="#d1ab9a" stroke-width="1"/><polyline id="SvgjsPolyline1729" points="0.09,115.09 76.34,98.64 133.72,85.79 192.72,71.95 299.45,46.18 308.23,44.22 314.75,43.19 321.93,42.76 330.31,43.32 338.58,44.79 355.57,48.55 362.1,49.44 367.5,49.7 373.49,49.43 378.84,48.72 395.25,45.12 401.74,43.97 408.32,43.41 413.72,43.49 418.49,43.93 423.83,44.78 440.8,48.6 447.87,49.96 452.63,50.58 458.02,50.89 463.42,50.72 468.78,50.09 490.5,45.56 496.47,44.96 501.87,44.93 507.85,45.43 513.77,46.37 538.38,51.81 544.31,52.7 550.29,53.14 556.29,53.01 561.65,52.38 578.06,48.79 584.57,47.75 591.76,47.4 599.54,47.96" fill="none" stroke="#d1ab9a" stroke-width="1"/><polyline id="SvgjsPolyline1730" points="0.52,102.73 73.38,87.67 130.28,75.43 185.3,63.05 300.44,36.33 309.25,34.49 314.6,33.73 322.38,33.38 329.56,33.93 335.48,34.91 353.08,38.66 358.43,39.42 363.81,39.77 368.61,39.69 373.98,39.16 379.31,38.25 395.74,34.78 401.7,34.06 406.49,33.89 410.69,34.05 416.65,34.73 440.15,39.58 445.49,40.35 450.88,40.74 456.28,40.66 461.05,40.19 465.79,39.4 481.63,36.04 486.39,35.41 492.38,35.13 498.37,35.44 503.13,36.05 509.03,37.13 527.79,41.21 533.72,42.11 539.11,42.55 545.1,42.5 550.47,41.95 568.69,38.2 573.44,37.52 577.63,37.22 581.83,37.22 587.8,37.69 599.62,39.78" fill="none" stroke="#d1ab9a" stroke-width="1"/><polyline id="SvgjsPolyline1731" points="0.47,90.49 68.74,76.95 122.8,65.79 188.48,51.57 299.73,26.7 309.14,24.8 315.09,24.03 322.28,23.82 328.86,24.36 334.78,25.33 351.23,28.71 355.99,29.37 360.77,29.71 364.97,29.7 370.35,29.27 376.28,28.33 392.74,25 398.11,24.39 402.9,24.23 407.1,24.4 412.47,25 433.64,29.24 439.58,30.12 444.36,30.49 449.76,30.48 455.14,29.99 474.56,26.19 479.92,25.5 485.31,25.26 490.7,25.5 496.06,26.15 518.41,30.68 523.74,31.5 528.52,31.94 533.32,32.04 539.3,31.62 545.23,30.67 559.33,27.77 563.49,27.23 568.29,26.96 574.28,27.16 580.83,27.95 599.63,31.84" fill="none" stroke="#d1ab9a" stroke-width="1"/><polyline id="SvgjsPolyline1732" points="0.52,78.25 61.82,66.57 120.67,54.88 182.93,41.91 302.59,16.16 309.08,14.95 313.84,14.34 320.43,14.05 327.01,14.47 332.95,15.36 349.43,18.62 354.78,19.3 360.17,19.57 364.97,19.4 369.74,18.88 390.97,14.94 396.35,14.47 401.15,14.45 405.94,14.8 411.28,15.55 431.31,19.44 436.67,20.05 441.47,20.24 446.26,20.05 451.03,19.5 470.48,15.84 476.46,15.32 481.26,15.33 490.8,16.36 513.18,20.69 518.54,21.29 522.74,21.47 528.13,21.28 532.31,20.81 551.77,17.18 556.55,16.75 561.34,16.71 566.13,17.03 572.08,17.84 592.08,21.86 599.79,22.98" fill="none" stroke="#d1ab9a" stroke-width="1"/><polyline id="SvgjsPolyline1733" points="0.07,66.13 64.98,54.18 123.9,42.84 182.72,30.99 301.39,6.35 307.88,5.14 313.23,4.44 319.82,4.16 325.81,4.52 332.34,5.47 348.84,8.58 357.81,9.29 362.61,9.14 367.97,8.55 387.45,5.01 392.23,4.56 397.63,4.49 403.01,4.89 407.17,5.47 427.23,9.19 435.59,9.84 440.99,9.67 445.76,9.14 464.65,5.71 468.83,5.31 474.22,5.21 479.01,5.51 484.37,6.22 505,10.09 510.37,10.69 514.57,10.87 519.96,10.68 524.13,10.21 542.43,6.88 547.21,6.44 552.01,6.38 557.39,6.75 562.74,7.48 579.82,10.82 586.34,11.84 593.51,12.39 599.51,12.23" fill="none" stroke="#d1ab9a" stroke-width="1"/><polyline id="SvgjsPolyline1734" points="0.3,53.89 65.28,42.33 128.98,30.44 185.51,19.4 281.98,0.02" fill="none" stroke="#d1ab9a" stroke-width="1"/><polyline id="SvgjsPolyline1735" points="575.67,0.02 581.66,0.39 588.85,0.05" fill="none" stroke="#d1ab9a" stroke-width="1"/><polyline id="SvgjsPolyline1736" points="0.01,41.76 52.05,32.84 108.16,22.83 158.89,13.4 228.41,0.01" fill="none" stroke="#d1ab9a" stroke-width="1"/><polyline id="SvgjsPolyline1737" points="0.37,29.53 84.39,15.4 170.03,0.05" fill="none" stroke="#d1ab9a" stroke-width="1"/><polyline id="SvgjsPolyline1738" points="0.21,17.4 52.34,8.99 105.59,0.05" fill="none" stroke="#d1ab9a" stroke-width="1"/><polyline id="SvgjsPolyline1739" points="0.11,5.26 33.9,0" fill="none" stroke="#d1ab9a" stroke-width="1"/></g></svg>