<?xml version="1.0" standalone="no"?>
<!DOCTYPE svg PUBLIC "-//W3C//DTD SVG 20010904//EN"
 "http://www.w3.org/TR/2001/REC-SVG-20010904/DTD/svg10.dtd">
<svg version="1.0" xmlns="http://www.w3.org/2000/svg"
 width="600.000000pt" height="600.000000pt" viewBox="0 0 600.000000 600.000000"
 preserveAspectRatio="xMidYMid meet">
<metadata>
Created by potrace 1.14, written by Peter Selinger 2001-2017
</metadata>
<g transform="translate(0.000000,600.000000) scale(0.100000,-0.100000)"
fill="#000000" stroke="none">
<path d="M3780 5984 c-112 -30 -242 -118 -380 -255 -44 -44 -80 -78 -80 -76 0
3 7 21 15 40 8 20 15 64 15 98 l0 61 -150 -142 c-82 -78 -150 -140 -150 -137
0 29 48 146 80 196 22 34 40 64 40 66 0 24 -148 -20 -289 -87 -215 -101 -287
-130 -440 -174 -379 -109 -573 -268 -589 -484 -6 -85 -7 -86 -146 -35 -112 40
-129 42 -173 15 -33 -20 -46 -44 -19 -34 23 9 97 -29 146 -75 l45 -41 -37 6
c-21 3 -54 3 -73 0 l-36 -7 70 -52 c39 -29 70 -55 71 -59 0 -3 -20 -14 -45
-23 -41 -16 -103 -17 -154 -4 -10 3 -17 -9 -22 -40 -5 -23 -28 -77 -53 -120
-116 -197 -132 -282 -100 -513 29 -213 82 -446 166 -736 64 -223 62 -216 48
-207 -23 14 -18 -36 29 -316 93 -547 143 -719 251 -880 24 -34 109 -139 189
-233 159 -185 152 -176 246 -318 73 -111 121 -151 201 -169 49 -11 63 -21 134
-93 43 -45 109 -119 145 -166 93 -118 124 -150 170 -171 71 -33 100 -26 169
39 34 31 109 91 166 131 128 91 215 173 242 226 25 48 29 51 86 60 72 11 115
47 189 159 48 72 102 135 191 221 179 173 256 299 390 635 80 203 91 260 107
545 7 138 18 266 24 285 15 47 14 49 -9 43 -11 -3 -20 -2 -20 1 0 4 25 95 56
204 31 108 58 208 60 222 3 14 16 68 29 120 72 286 98 510 85 715 -13 188 -22
275 -28 275 -3 0 -16 -10 -29 -22 l-23 -21 0 46 c0 48 -7 56 -28 35 -6 -6 -14
-9 -18 -6 -10 11 45 106 112 194 l66 86 -34 -7 c-62 -13 -153 -46 -197 -72
l-44 -25 7 28 c4 16 25 65 46 109 21 44 37 81 36 82 -1 2 -31 -14 -66 -36
l-64 -38 -17 49 c-21 63 -83 152 -133 192 -21 17 -64 54 -94 82 -55 51 -55 51
-42 84 7 18 25 46 38 62 13 16 22 31 19 35 -11 10 -99 -26 -149 -63 l-51 -36
7 29 c27 105 120 231 200 272 26 13 46 24 44 26 -2 1 -31 -1 -65 -6 -127 -18
-285 -98 -399 -202 -47 -43 -56 -47 -49 -27 21 71 81 164 143 222 l66 61 -53
-6 c-29 -3 -73 -18 -98 -32 l-45 -25 18 28 c39 61 92 118 148 159 l58 43 -58
-1 c-33 0 -84 -7 -114 -15z m-1145 -1285 c90 -20 127 -22 360 -22 226 0 274 3
363 22 196 40 358 23 522 -56 173 -83 309 -249 369 -448 30 -100 38 -209 26
-381 l-10 -151 -25 9 c-14 6 -65 20 -115 33 -49 13 -112 34 -140 46 -67 30
-174 35 -317 16 -62 -9 -153 -21 -202 -27 -108 -14 -227 -50 -280 -86 -38 -26
-42 -27 -115 -17 -50 6 -102 6 -152 0 -70 -9 -79 -8 -105 10 -52 36 -162 73
-261 88 -360 52 -437 56 -523 24 -30 -11 -100 -33 -155 -49 -55 -16 -113 -34
-129 -40 -16 -6 -30 -9 -32 -8 -6 6 37 334 56 427 74 363 231 572 473 627 86
19 265 12 392 -17z m-260 -1044 c106 -33 224 -55 295 -55 75 0 133 -39 151
-100 32 -106 -51 -351 -159 -472 -87 -96 -193 -128 -423 -128 -318 0 -394 49
-435 282 -18 104 -14 246 10 301 45 104 237 194 421 196 38 1 89 -8 140 -24z
m1503 9 c151 -31 273 -109 301 -193 31 -94 21 -286 -21 -399 -25 -68 -85 -131
-143 -151 -23 -7 -106 -15 -197 -18 -272 -9 -395 22 -488 124 -84 92 -153 255
-166 393 -7 76 5 110 55 148 39 29 49 32 112 32 83 0 199 23 283 55 74 29 156
31 264 9z m-828 -194 c11 -6 22 -26 25 -48 32 -192 106 -352 210 -457 53 -52
85 -76 129 -93 84 -33 207 -46 371 -38 155 7 252 24 313 55 52 27 106 91 128
152 14 37 20 45 27 34 5 -10 -10 -63 -46 -157 -30 -79 -65 -174 -77 -213 -28
-87 -83 -197 -124 -250 -17 -22 -76 -89 -131 -150 -108 -117 -147 -170 -188
-250 -16 -32 -42 -62 -71 -83 -25 -18 -77 -70 -115 -115 -76 -91 -154 -167
-172 -167 -7 0 -36 23 -65 50 -31 29 -82 63 -121 81 -37 16 -73 35 -80 41 -8
6 -48 11 -91 12 -59 1 -84 -2 -107 -17 -16 -10 -70 -42 -119 -71 -63 -37 -95
-62 -107 -86 -29 -53 -36 -56 -55 -19 -31 61 -76 110 -129 140 -49 27 -53 33
-64 85 -7 30 -31 92 -53 136 -36 71 -63 104 -212 257 -185 190 -209 226 -265
385 -18 49 -50 128 -72 175 -39 82 -79 185 -79 203 0 4 7 8 15 8 8 0 15 6 15
13 0 6 11 -15 25 -48 31 -75 92 -135 166 -162 97 -37 359 -53 518 -33 168 22
283 113 375 296 39 78 86 229 86 277 0 45 25 67 77 67 24 0 53 -5 63 -10z"/>
<path d="M2173 3495 c-89 -16 -149 -44 -197 -93 -58 -57 -60 -64 -19 -97 l36
-28 -7 26 c-11 45 55 98 172 138 l54 19 -6 -24 c-5 -20 -2 -23 24 -22 19 1 28
6 26 13 -6 14 16 23 44 18 14 -3 20 1 20 13 0 15 2 15 10 2 7 -11 12 -12 18
-3 5 8 43 12 114 12 96 1 110 -2 135 -22 61 -49 66 -50 29 -7 -21 25 -46 51
-54 58 -21 16 -302 15 -399 -3z"/>
<path d="M2310 3417 c-36 -18 -41 -78 -8 -101 30 -21 54 -20 78 4 28 28 25 64
-6 89 -31 24 -31 25 -64 8z m65 -17 c3 -5 1 -10 -4 -10 -6 0 -11 5 -11 10 0 6
2 10 4 10 3 0 8 -4 11 -10z"/>
<path d="M2616 3278 c-36 -20 -121 -38 -216 -43 -52 -3 -120 -10 -150 -15 -90
-15 -187 -15 -206 1 -16 13 -16 12 -5 -8 6 -13 17 -23 24 -23 44 0 316 22 382
31 100 12 179 34 195 54 14 17 3 19 -24 3z"/>
<path d="M3352 3455 c-67 -73 -67 -89 1 -32 49 42 56 45 120 49 37 1 67 2 67
0 0 -2 -5 -12 -10 -23 -10 -17 -8 -19 25 -17 25 2 34 7 30 17 -4 11 -3 12 10
1 9 -7 15 -8 15 -2 0 11 18 11 38 -1 8 -5 12 -2 12 8 0 14 8 15 48 9 26 -3 51
-9 56 -12 5 -3 23 -6 39 -8 16 -1 56 -16 88 -32 l60 -31 -20 27 c-31 44 -65
72 -102 83 -19 6 -122 14 -229 16 l-196 5 -52 -57z"/>
<path d="M3627 3418 c-32 -11 -45 -48 -29 -83 15 -32 55 -42 87 -21 33 22 35
78 3 100 -25 18 -23 18 -61 4z"/>
<path d="M3991 3294 c0 -11 3 -14 6 -6 3 7 2 16 -1 19 -3 4 -6 -2 -5 -13z"/>
<path d="M3340 3275 c16 -20 95 -42 195 -54 64 -9 337 -30 380 -31 6 0 16 10
24 23 13 20 13 21 -3 8 -19 -16 -115 -16 -206 -1 -30 5 -96 11 -146 14 -99 6
-166 18 -221 41 -32 13 -34 13 -23 0z"/>
<path d="M2825 2364 c-266 -56 -359 -98 -379 -171 -3 -13 -9 -33 -12 -44 -6
-21 -4 -21 52 -14 33 3 106 16 163 26 57 11 138 24 179 29 97 11 111 24 119
117 3 39 2 73 -3 75 -5 3 -58 -5 -119 -18z"/>
<path d="M3040 2331 c0 -106 27 -141 108 -141 20 0 94 -11 163 -24 70 -14 154
-28 187 -32 l60 -6 -8 38 c-13 55 -39 86 -100 116 -46 22 -269 83 -377 102
l-33 6 0 -59z"/>
</g>
</svg>
